%TF.GenerationSoftware,KiCad,Pcbnew,8.0.6*%
%TF.CreationDate,2024-11-28T00:53:07-05:00*%
%TF.ProjectId,wyt-dongle,7779742d-646f-46e6-976c-652e6b696361,rev?*%
%TF.SameCoordinates,Original*%
%TF.FileFunction,Legend,Top*%
%TF.FilePolarity,Positive*%
%FSLAX46Y46*%
G04 Gerber Fmt 4.6, Leading zero omitted, Abs format (unit mm)*
G04 Created by KiCad (PCBNEW 8.0.6) date 2024-11-28 00:53:07*
%MOMM*%
%LPD*%
G01*
G04 APERTURE LIST*
G04 Aperture macros list*
%AMRoundRect*
0 Rectangle with rounded corners*
0 $1 Rounding radius*
0 $2 $3 $4 $5 $6 $7 $8 $9 X,Y pos of 4 corners*
0 Add a 4 corners polygon primitive as box body*
4,1,4,$2,$3,$4,$5,$6,$7,$8,$9,$2,$3,0*
0 Add four circle primitives for the rounded corners*
1,1,$1+$1,$2,$3*
1,1,$1+$1,$4,$5*
1,1,$1+$1,$6,$7*
1,1,$1+$1,$8,$9*
0 Add four rect primitives between the rounded corners*
20,1,$1+$1,$2,$3,$4,$5,0*
20,1,$1+$1,$4,$5,$6,$7,0*
20,1,$1+$1,$6,$7,$8,$9,0*
20,1,$1+$1,$8,$9,$2,$3,0*%
G04 Aperture macros list end*
%ADD10C,0.100000*%
%ADD11C,0.120000*%
%ADD12C,0.200000*%
%ADD13R,1.800000X1.350000*%
%ADD14RoundRect,0.200000X-0.275000X0.200000X-0.275000X-0.200000X0.275000X-0.200000X0.275000X0.200000X0*%
%ADD15RoundRect,0.150000X-0.150000X0.512500X-0.150000X-0.512500X0.150000X-0.512500X0.150000X0.512500X0*%
%ADD16RoundRect,0.140000X0.170000X-0.140000X0.170000X0.140000X-0.170000X0.140000X-0.170000X-0.140000X0*%
%ADD17R,0.800000X0.400000*%
%ADD18R,0.400000X0.800000*%
%ADD19R,1.200000X1.200000*%
%ADD20R,0.800000X0.800000*%
%ADD21RoundRect,0.140000X-0.170000X0.140000X-0.170000X-0.140000X0.170000X-0.140000X0.170000X0.140000X0*%
%ADD22C,1.800000*%
%ADD23O,1.900000X3.050000*%
%ADD24RoundRect,0.200000X0.200000X0.275000X-0.200000X0.275000X-0.200000X-0.275000X0.200000X-0.275000X0*%
%ADD25RoundRect,0.150000X0.150000X-0.587500X0.150000X0.587500X-0.150000X0.587500X-0.150000X-0.587500X0*%
%ADD26RoundRect,0.200000X-0.200000X-0.275000X0.200000X-0.275000X0.200000X0.275000X-0.200000X0.275000X0*%
%ADD27C,0.650000*%
%ADD28R,1.240000X0.600000*%
%ADD29R,1.240000X0.300000*%
%ADD30O,2.100000X1.000000*%
%ADD31O,1.800000X1.000000*%
%ADD32RoundRect,0.140000X0.140000X0.170000X-0.140000X0.170000X-0.140000X-0.170000X0.140000X-0.170000X0*%
%ADD33RoundRect,0.150000X-0.150000X0.587500X-0.150000X-0.587500X0.150000X-0.587500X0.150000X0.587500X0*%
%ADD34R,1.700000X1.700000*%
%ADD35O,1.700000X1.700000*%
G04 APERTURE END LIST*
D10*
%TO.C,SW1*%
X750000Y-23900000D02*
X1300000Y-23900000D01*
X750000Y-28900000D02*
X750000Y-23900000D01*
X1300000Y-28900000D02*
X750000Y-28900000D01*
X3300000Y-23900000D02*
X3850000Y-23900000D01*
X3850000Y-23900000D02*
X3850000Y-28900000D01*
X3850000Y-28900000D02*
X3300000Y-28900000D01*
D11*
%TO.C,R4*%
X4677500Y-27662742D02*
X4677500Y-28137258D01*
X5722500Y-27662742D02*
X5722500Y-28137258D01*
%TO.C,U1*%
X5140000Y-24300000D02*
X5140000Y-23500000D01*
X5140000Y-24300000D02*
X5140000Y-25100000D01*
X8260000Y-24300000D02*
X8260000Y-23500000D01*
X8260000Y-24300000D02*
X8260000Y-25100000D01*
X8540000Y-23240000D02*
X8210000Y-23000000D01*
X8540000Y-22760000D01*
X8540000Y-23240000D01*
G36*
X8540000Y-23240000D02*
G01*
X8210000Y-23000000D01*
X8540000Y-22760000D01*
X8540000Y-23240000D01*
G37*
%TO.C,R3*%
X6177500Y-27662742D02*
X6177500Y-28137258D01*
X7222500Y-27662742D02*
X7222500Y-28137258D01*
%TO.C,C1*%
X4140000Y-25107836D02*
X4140000Y-24892164D01*
X4860000Y-25107836D02*
X4860000Y-24892164D01*
D10*
%TO.C,U2*%
X400000Y-2050000D02*
X400000Y-2050000D01*
X500000Y-2050000D02*
X500000Y-2050000D01*
D12*
X1000000Y4775000D02*
X16400000Y4775000D01*
X1000000Y0D02*
X1000000Y4775000D01*
X16400000Y4775000D02*
X16400000Y0D01*
D10*
X400000Y-2050000D02*
G75*
G02*
X500000Y-2050000I50000J0D01*
G01*
X500000Y-2050000D02*
G75*
G02*
X400000Y-2050000I-50000J0D01*
G01*
D11*
%TO.C,C2*%
X4140000Y-22992164D02*
X4140000Y-23207836D01*
X4860000Y-22992164D02*
X4860000Y-23207836D01*
%TO.C,C4*%
X7540000Y-17807836D02*
X7540000Y-17592164D01*
X8260000Y-17807836D02*
X8260000Y-17592164D01*
%TO.C,R1*%
X2637258Y-17877500D02*
X2162742Y-17877500D01*
X2637258Y-18922500D02*
X2162742Y-18922500D01*
%TO.C,Q2*%
X4040000Y-20262500D02*
X4040000Y-19612500D01*
X4040000Y-20262500D02*
X4040000Y-20912500D01*
X7160000Y-20262500D02*
X7160000Y-19612500D01*
X7160000Y-20262500D02*
X7160000Y-20912500D01*
X4090000Y-21425000D02*
X3760000Y-21665000D01*
X3760000Y-21185000D01*
X4090000Y-21425000D01*
G36*
X4090000Y-21425000D02*
G01*
X3760000Y-21665000D01*
X3760000Y-21185000D01*
X4090000Y-21425000D01*
G37*
%TO.C,R2*%
X5662742Y-17077500D02*
X6137258Y-17077500D01*
X5662742Y-18122500D02*
X6137258Y-18122500D01*
%TO.C,P1*%
X11450000Y-26680000D02*
X13370000Y-26680000D01*
X13370000Y-17520000D02*
X11450000Y-17520000D01*
X15380000Y-17520000D02*
X17085000Y-17520000D01*
X17085000Y-17520000D02*
X17085000Y-26680000D01*
X17085000Y-26680000D02*
X15380000Y-26680000D01*
%TO.C,C3*%
X3607836Y-16840000D02*
X3392164Y-16840000D01*
X3607836Y-17560000D02*
X3392164Y-17560000D01*
%TO.C,Q1*%
X440000Y-21137500D02*
X440000Y-20487500D01*
X440000Y-21137500D02*
X440000Y-21787500D01*
X3560000Y-21137500D02*
X3560000Y-20487500D01*
X3560000Y-21137500D02*
X3560000Y-21787500D01*
X3840000Y-20215000D02*
X3510000Y-19975000D01*
X3840000Y-19735000D01*
X3840000Y-20215000D01*
G36*
X3840000Y-20215000D02*
G01*
X3510000Y-19975000D01*
X3840000Y-19735000D01*
X3840000Y-20215000D01*
G37*
%TD*%
%LPC*%
D13*
%TO.C,SW1*%
X2300000Y-28475000D03*
X2300000Y-24325000D03*
%TD*%
D14*
%TO.C,R4*%
X5200000Y-27075000D03*
X5200000Y-28725000D03*
%TD*%
D15*
%TO.C,U1*%
X7650000Y-23162500D03*
X5750000Y-23162500D03*
X6700000Y-25437500D03*
%TD*%
D14*
%TO.C,R3*%
X6700000Y-27075000D03*
X6700000Y-28725000D03*
%TD*%
D16*
%TO.C,C1*%
X4500000Y-25480000D03*
X4500000Y-24520000D03*
%TD*%
D17*
%TO.C,U2*%
X1700000Y-2050000D03*
X1700000Y-2900000D03*
X1700000Y-3750000D03*
X1700000Y-4600000D03*
X1700000Y-5450000D03*
X1700000Y-6300000D03*
X1700000Y-7150000D03*
X1700000Y-8000000D03*
X1700000Y-8850000D03*
X1700000Y-9700000D03*
X1700000Y-10550000D03*
X1700000Y-11400000D03*
X1700000Y-12250000D03*
X1700000Y-13100000D03*
X1700000Y-13950000D03*
D18*
X2750000Y-15000000D03*
X3600000Y-15000000D03*
X4450000Y-15000000D03*
X5300000Y-15000000D03*
X6150000Y-15000000D03*
X7000000Y-15000000D03*
X7850000Y-15000000D03*
X8700000Y-15000000D03*
X9550000Y-15000000D03*
X10400000Y-15000000D03*
X11250000Y-15000000D03*
X12100000Y-15000000D03*
X12950000Y-15000000D03*
X13800000Y-15000000D03*
X14650000Y-15000000D03*
D17*
X15700000Y-13950000D03*
X15700000Y-13100000D03*
X15700000Y-12250000D03*
X15700000Y-11400000D03*
X15700000Y-10550000D03*
X15700000Y-9700000D03*
X15700000Y-8850000D03*
X15700000Y-8000000D03*
X15700000Y-7150000D03*
X15700000Y-6300000D03*
X15700000Y-5450000D03*
X15700000Y-4600000D03*
X15700000Y-3750000D03*
X15700000Y-2900000D03*
X15700000Y-2050000D03*
D18*
X14650000Y-1000000D03*
X13800000Y-1000000D03*
X12950000Y-1000000D03*
X12100000Y-1000000D03*
X11250000Y-1000000D03*
X10400000Y-1000000D03*
X9550000Y-1000000D03*
X8700000Y-1000000D03*
X7850000Y-1000000D03*
X7000000Y-1000000D03*
X6150000Y-1000000D03*
X5300000Y-1000000D03*
X4450000Y-1000000D03*
X3600000Y-1000000D03*
X2750000Y-1000000D03*
D19*
X8700000Y-8000000D03*
D20*
X1700000Y-1000000D03*
X1700000Y-15000000D03*
X15700000Y-15000000D03*
X15700000Y-1000000D03*
D19*
X7050000Y-6350000D03*
X7050000Y-8000000D03*
X7050000Y-9650000D03*
X8700000Y-9650000D03*
X10350000Y-9650000D03*
X10350000Y-8000000D03*
X10350000Y-6350000D03*
X8700000Y-6350000D03*
%TD*%
D21*
%TO.C,C2*%
X4500000Y-22620000D03*
X4500000Y-23580000D03*
%TD*%
D22*
%TO.C,J1*%
X12100000Y-30887500D03*
X9600000Y-30887500D03*
X7600000Y-30887500D03*
X5100000Y-30887500D03*
D23*
X14450000Y-33287500D03*
X2750000Y-33287500D03*
%TD*%
D16*
%TO.C,C4*%
X7900000Y-18180000D03*
X7900000Y-17220000D03*
%TD*%
D24*
%TO.C,R1*%
X3225000Y-18400000D03*
X1575000Y-18400000D03*
%TD*%
D25*
%TO.C,Q2*%
X4650000Y-21200000D03*
X6550000Y-21200000D03*
X5600000Y-19325000D03*
%TD*%
D26*
%TO.C,R2*%
X5075000Y-17600000D03*
X6725000Y-17600000D03*
%TD*%
D27*
%TO.C,P1*%
X10695000Y-24990000D03*
X10695000Y-19210000D03*
D28*
X9575000Y-25300000D03*
X9575000Y-24500000D03*
D29*
X9575000Y-23350000D03*
X9575000Y-22350000D03*
X9575000Y-21850000D03*
X9575000Y-20850000D03*
D28*
X9575000Y-19700000D03*
X9575000Y-18900000D03*
X9575000Y-18900000D03*
X9575000Y-19700000D03*
D29*
X9575000Y-20350000D03*
X9575000Y-21350000D03*
X9575000Y-22850000D03*
X9575000Y-23850000D03*
D28*
X9575000Y-24500000D03*
X9575000Y-25300000D03*
D30*
X10175000Y-26420000D03*
D31*
X14375000Y-26420000D03*
D30*
X10175000Y-17780000D03*
D31*
X14375000Y-17780000D03*
%TD*%
D32*
%TO.C,C3*%
X3980000Y-17200000D03*
X3020000Y-17200000D03*
%TD*%
D33*
%TO.C,Q1*%
X2950000Y-20200000D03*
X1050000Y-20200000D03*
X2000000Y-22075000D03*
%TD*%
D34*
%TO.C,J3*%
X12800000Y-28600000D03*
D35*
X15340000Y-28600000D03*
%TD*%
%LPD*%
M02*
