M48
; DRILL file {KiCad 8.0.6} date 2024-12-05T18:18:12-0500
; FORMAT={-:-/ absolute / inch / decimal}
; #@! TF.CreationDate,2024-12-05T18:18:12-05:00
; #@! TF.GenerationSoftware,Kicad,Pcbnew,8.0.6
; #@! TF.FileFunction,Plated,1,2,PTH
FMAT,2
INCH
; #@! TA.AperFunction,Plated,PTH,ViaDrill
T1C0.0118
; #@! TA.AperFunction,Plated,PTH,ComponentDrill
T2C0.0236
; #@! TA.AperFunction,Plated,PTH,ComponentDrill
T3C0.0394
; #@! TA.AperFunction,Plated,PTH,ComponentDrill
T4C0.0433
; #@! TA.AperFunction,Plated,PTH,ComponentDrill
T5C0.0472
%
G90
G05
T1
X0.061Y-1.1299
X0.1358Y-1.0886
X0.1634Y-0.939
X0.1772Y-0.813
X0.1909Y-1.0906
X0.2008Y-0.3583
X0.2171Y-0.6688
X0.2205Y-0.5354
X0.2206Y-0.4529
X0.2264Y-0.2244
X0.2283Y-0.1614
X0.2677Y-0.4961
X0.2677Y-0.5581
X0.2874Y-0.3071
X0.2913Y-0.1102
X0.3425Y-0.6358
X0.3898Y-0.9764
X0.3937Y-0.6358
X0.4272Y-0.6614
X0.4331Y-0.7303
X0.5039Y-0.9114
X0.5197Y-0.6437
X0.5209Y-0.9929
X0.5906Y-0.1102
X0.6142Y-0.3031
X0.6299Y-0.4331
X0.6654Y-0.8051
X0.752Y-0.2756
X0.7559Y-0.2205
T3
X0.8327Y-1.1516
X0.8327Y-1.2516
T5
X0.3169Y-1.1378
X0.4154Y-1.1378
X0.4941Y-1.1378
X0.5925Y-1.1378
T2
G00X0.6159Y-0.7
M15
G01X0.6593Y-0.7
M16
G05
G00X0.6159Y-1.0402
M15
G01X0.6593Y-1.0402
M16
G05
G00X0.7864Y-0.7
M15
G01X0.8179Y-0.7
M16
G05
G00X0.7864Y-1.0402
M15
G01X0.8179Y-1.0402
M16
G05
T4
G00X0.2244Y-1.2549
M15
G01X0.2244Y-1.2096
M16
G05
G00X0.685Y-1.2549
M15
G01X0.685Y-1.2096
M16
G05
M30
