%TF.GenerationSoftware,KiCad,Pcbnew,8.0.6*%
%TF.CreationDate,2024-12-05T18:18:12-05:00*%
%TF.ProjectId,wyt-dongle,7779742d-646f-46e6-976c-652e6b696361,rev?*%
%TF.SameCoordinates,Original*%
%TF.FileFunction,Copper,L2,Bot*%
%TF.FilePolarity,Positive*%
%FSLAX46Y46*%
G04 Gerber Fmt 4.6, Leading zero omitted, Abs format (unit mm)*
G04 Created by KiCad (PCBNEW 8.0.6) date 2024-12-05 18:18:12*
%MOMM*%
%LPD*%
G01*
G04 APERTURE LIST*
%TA.AperFunction,ComponentPad*%
%ADD10O,1.900000X3.050000*%
%TD*%
%TA.AperFunction,ComponentPad*%
%ADD11C,1.800000*%
%TD*%
%TA.AperFunction,ComponentPad*%
%ADD12O,1.700000X1.700000*%
%TD*%
%TA.AperFunction,ComponentPad*%
%ADD13R,1.700000X1.700000*%
%TD*%
%TA.AperFunction,ComponentPad*%
%ADD14O,1.800000X1.000000*%
%TD*%
%TA.AperFunction,ComponentPad*%
%ADD15O,2.100000X1.000000*%
%TD*%
%TA.AperFunction,SMDPad,CuDef*%
%ADD16R,3.000000X1.750000*%
%TD*%
%TA.AperFunction,ViaPad*%
%ADD17C,0.600000*%
%TD*%
%TA.AperFunction,ViaPad*%
%ADD18C,0.450000*%
%TD*%
%TA.AperFunction,Conductor*%
%ADD19C,0.200000*%
%TD*%
G04 APERTURE END LIST*
D10*
%TO.P,J3,5,Shield*%
%TO.N,GND*%
X5700000Y-31300000D03*
X17400000Y-31300000D03*
D11*
%TO.P,J3,4,GND*%
%TO.N,+5V*%
X8050000Y-28900000D03*
%TO.P,J3,3,D+*%
%TO.N,GND*%
X10550000Y-28900000D03*
%TO.P,J3,2,D-*%
%TO.N,/RX*%
X12550000Y-28900000D03*
%TO.P,J3,1,VBUS*%
%TO.N,/TX*%
X15050000Y-28900000D03*
%TD*%
D12*
%TO.P,J1,2,Pin_2*%
%TO.N,GND*%
X21150000Y-31790000D03*
D13*
%TO.P,J1,1,Pin_1*%
%TO.N,/IR*%
X21150000Y-29250000D03*
%TD*%
D14*
%TO.P,P1,S1,SHIELD*%
%TO.N,GND*%
X20375000Y-17780000D03*
D15*
X16195000Y-17780000D03*
D14*
X20375000Y-26420000D03*
D15*
X16195000Y-26420000D03*
%TD*%
D16*
%TO.P,J4,8,Pin_8*%
%TO.N,/CS*%
X2050000Y-19160000D03*
%TO.P,J4,7,Pin_7*%
%TO.N,/MOSI*%
X2050000Y-16630000D03*
%TO.P,J4,6,Pin_6*%
%TO.N,/SCK*%
X2050000Y-14070000D03*
%TO.P,J4,5,Pin_5*%
%TO.N,/MISO*%
X2050000Y-11530000D03*
%TO.P,J4,4,Pin_4*%
%TO.N,+3.3V*%
X2050000Y-8990000D03*
%TO.P,J4,3,Pin_3*%
%TO.N,GND*%
X2050000Y-6450000D03*
%TO.P,J4,2,Pin_2*%
%TO.N,/SDA*%
X2050000Y-3910000D03*
%TO.P,J4,1,Pin_1*%
%TO.N,/SCL*%
X2050000Y-1380000D03*
%TD*%
%TO.P,J2,5,Pin_5*%
%TO.N,+5V*%
X21000000Y-12080000D03*
%TO.P,J2,4,Pin_4*%
%TO.N,+3.3V*%
X21000000Y-9540000D03*
%TO.P,J2,3,Pin_3*%
%TO.N,/TXD0*%
X21000000Y-7000000D03*
%TO.P,J2,2,Pin_2*%
%TO.N,/RXD0*%
X21000000Y-4460000D03*
%TO.P,J2,1,Pin_1*%
%TO.N,GND*%
X21000000Y-1920000D03*
%TD*%
D17*
%TO.N,+5V*%
X13230000Y-25220000D03*
X16900000Y-20450000D03*
%TO.N,GND*%
X15000000Y-2800000D03*
X12800000Y-23150000D03*
X7400000Y-2800000D03*
X10850000Y-16800000D03*
%TO.N,+3.3V*%
X9900000Y-24800000D03*
D18*
X7300000Y-7800000D03*
D17*
X11000000Y-18550000D03*
X4500000Y-20650000D03*
X3450000Y-27650000D03*
X15600000Y-7700000D03*
X16000000Y-11000000D03*
X13200000Y-16350000D03*
%TO.N,/TXD*%
X8700000Y-16150000D03*
X1550000Y-28700000D03*
%TO.N,/RXD*%
X4150000Y-23850000D03*
X10000000Y-16150000D03*
%TO.N,/RX*%
X4850000Y-27700000D03*
%TO.N,Net-(U2-IO0)*%
X5513235Y-16988235D03*
X5100000Y-9100000D03*
%TO.N,/TXD0*%
X19100000Y-7000000D03*
%TO.N,/RXD0*%
X19200000Y-5600000D03*
D18*
%TO.N,/CS*%
X6800000Y-14174998D03*
%TO.N,/SDA*%
X5750000Y-5700000D03*
%TO.N,/MISO*%
X5604075Y-11504075D03*
%TO.N,/MOSI*%
X5600000Y-13600000D03*
%TO.N,/SCK*%
X6800000Y-12600000D03*
%TO.N,/SCL*%
X5800000Y-4100000D03*
%TD*%
D19*
%TO.N,/CS*%
X6800000Y-14174998D02*
X6800000Y-14200000D01*
X6800000Y-14200000D02*
X4400000Y-16600000D01*
X4400000Y-17400000D02*
X2660000Y-19140000D01*
X4400000Y-16600000D02*
X4400000Y-17400000D01*
X2660000Y-19140000D02*
X2050000Y-19140000D01*
%TO.N,/MISO*%
X5598150Y-11510000D02*
X2050000Y-11510000D01*
X5604075Y-11504075D02*
X5598150Y-11510000D01*
%TO.N,+5V*%
X16900000Y-20450000D02*
X17950000Y-19400000D01*
X17950000Y-14000000D02*
X19870000Y-12080000D01*
X7600000Y-28900000D02*
X11280000Y-25220000D01*
X17950000Y-19400000D02*
X17950000Y-14000000D01*
X19870000Y-12080000D02*
X21000000Y-12080000D01*
X11280000Y-25220000D02*
X13230000Y-25220000D01*
%TO.N,+3.3V*%
X3450000Y-27650000D02*
X3450000Y-27500000D01*
X15600000Y-7700000D02*
X15600000Y-7750000D01*
X17460000Y-9540000D02*
X21000000Y-9540000D01*
X3845000Y-7800000D02*
X2675000Y-8970000D01*
X13250000Y-16350000D02*
X13200000Y-16350000D01*
X16000000Y-13600000D02*
X13250000Y-16350000D01*
X7300000Y-7800000D02*
X3845000Y-7800000D01*
X2675000Y-8970000D02*
X2050000Y-8970000D01*
X15600000Y-7750000D02*
X4500000Y-18850000D01*
X16000000Y-11000000D02*
X17460000Y-9540000D01*
X3450000Y-27500000D02*
X6150000Y-24800000D01*
X4500000Y-18850000D02*
X4500000Y-20650000D01*
X11000000Y-18550000D02*
X13200000Y-16350000D01*
X16000000Y-11000000D02*
X16000000Y-13600000D01*
X6150000Y-24800000D02*
X9900000Y-24800000D01*
%TO.N,/TXD*%
X1550000Y-28700000D02*
X1550000Y-25300000D01*
X1550000Y-25300000D02*
X8700000Y-18150000D01*
X8700000Y-18150000D02*
X8700000Y-16150000D01*
%TO.N,/RXD*%
X4150000Y-23850000D02*
X4300000Y-23850000D01*
X4300000Y-23850000D02*
X10000000Y-18150000D01*
X10000000Y-18150000D02*
X10000000Y-16150000D01*
%TO.N,/RX*%
X11100000Y-30350000D02*
X12550000Y-28900000D01*
X4850000Y-27700000D02*
X7500000Y-30350000D01*
X7500000Y-30350000D02*
X11100000Y-30350000D01*
%TO.N,Net-(U2-IO0)*%
X5513235Y-16988235D02*
X5611765Y-16988235D01*
X7900000Y-14700000D02*
X7900000Y-11900000D01*
X5611765Y-16988235D02*
X7900000Y-14700000D01*
X7900000Y-11900000D02*
X5100000Y-9100000D01*
%TO.N,/TXD0*%
X19100000Y-7000000D02*
X21000000Y-7000000D01*
%TO.N,/RXD0*%
X20880000Y-3920000D02*
X21000000Y-3920000D01*
X19200000Y-5600000D02*
X20880000Y-3920000D01*
%TO.N,/SDA*%
X3940000Y-3890000D02*
X2050000Y-3890000D01*
X5750000Y-5700000D02*
X3940000Y-3890000D01*
%TO.N,/MOSI*%
X2675000Y-16610000D02*
X2050000Y-16610000D01*
X5600000Y-13600000D02*
X5600000Y-13685000D01*
X5600000Y-13685000D02*
X2675000Y-16610000D01*
%TO.N,/SCK*%
X6800000Y-12600000D02*
X4100000Y-12600000D01*
X2650000Y-14050000D02*
X2050000Y-14050000D01*
X4100000Y-12600000D02*
X2650000Y-14050000D01*
%TO.N,/SCL*%
X3760000Y-1360000D02*
X2050000Y-1360000D01*
X5800000Y-3400000D02*
X3760000Y-1360000D01*
X5800000Y-4100000D02*
X5800000Y-3400000D01*
%TD*%
%TA.AperFunction,Conductor*%
%TO.N,GND*%
G36*
X22442539Y-520185D02*
G01*
X22488294Y-572989D01*
X22499500Y-624500D01*
X22499500Y-3260500D01*
X22479815Y-3327539D01*
X22427011Y-3373294D01*
X22375500Y-3384500D01*
X19480247Y-3384500D01*
X19421770Y-3396131D01*
X19421769Y-3396132D01*
X19355447Y-3440447D01*
X19311132Y-3506769D01*
X19311131Y-3506770D01*
X19299500Y-3565247D01*
X19299500Y-4975500D01*
X19279815Y-5042539D01*
X19227011Y-5088294D01*
X19175500Y-5099500D01*
X19128036Y-5099500D01*
X18989949Y-5140045D01*
X18868873Y-5217856D01*
X18774623Y-5326626D01*
X18774622Y-5326628D01*
X18714834Y-5457543D01*
X18694353Y-5600000D01*
X18714834Y-5742456D01*
X18764867Y-5852011D01*
X18774623Y-5873373D01*
X18868872Y-5982143D01*
X18989947Y-6059953D01*
X18989950Y-6059954D01*
X18989949Y-6059954D01*
X19128036Y-6100499D01*
X19128038Y-6100500D01*
X19175500Y-6100500D01*
X19242539Y-6120185D01*
X19288294Y-6172989D01*
X19299500Y-6224500D01*
X19299500Y-6375500D01*
X19279815Y-6442539D01*
X19227011Y-6488294D01*
X19175500Y-6499500D01*
X19028036Y-6499500D01*
X18889949Y-6540045D01*
X18768873Y-6617856D01*
X18674623Y-6726626D01*
X18674622Y-6726628D01*
X18614834Y-6857543D01*
X18594353Y-7000000D01*
X18614834Y-7142456D01*
X18640886Y-7199500D01*
X18674623Y-7273373D01*
X18768872Y-7382143D01*
X18889947Y-7459953D01*
X18889950Y-7459954D01*
X18889949Y-7459954D01*
X18997107Y-7491417D01*
X19024633Y-7499500D01*
X19028036Y-7500499D01*
X19028038Y-7500500D01*
X19175500Y-7500500D01*
X19242539Y-7520185D01*
X19288294Y-7572989D01*
X19299500Y-7624500D01*
X19299500Y-7894752D01*
X19311131Y-7953229D01*
X19311132Y-7953230D01*
X19355447Y-8019552D01*
X19421769Y-8063867D01*
X19421770Y-8063868D01*
X19480247Y-8075499D01*
X19480250Y-8075500D01*
X19480252Y-8075500D01*
X22375500Y-8075500D01*
X22442539Y-8095185D01*
X22488294Y-8147989D01*
X22499500Y-8199500D01*
X22499500Y-8340500D01*
X22479815Y-8407539D01*
X22427011Y-8453294D01*
X22375500Y-8464500D01*
X19480247Y-8464500D01*
X19421770Y-8476131D01*
X19421769Y-8476132D01*
X19355447Y-8520447D01*
X19311132Y-8586769D01*
X19311131Y-8586770D01*
X19299500Y-8645247D01*
X19299500Y-9115500D01*
X19279815Y-9182539D01*
X19227011Y-9228294D01*
X19175500Y-9239500D01*
X17420438Y-9239500D01*
X17382224Y-9249739D01*
X17344009Y-9259979D01*
X17344008Y-9259980D01*
X17301520Y-9284511D01*
X17275492Y-9299538D01*
X17275486Y-9299542D01*
X16111847Y-10463181D01*
X16050524Y-10496666D01*
X16024166Y-10499500D01*
X15928036Y-10499500D01*
X15789949Y-10540045D01*
X15668873Y-10617856D01*
X15574623Y-10726626D01*
X15574622Y-10726628D01*
X15514834Y-10857543D01*
X15494353Y-11000000D01*
X15514834Y-11142456D01*
X15564338Y-11250853D01*
X15574623Y-11273373D01*
X15668872Y-11382143D01*
X15668875Y-11382144D01*
X15669213Y-11382535D01*
X15698238Y-11446091D01*
X15699500Y-11463738D01*
X15699500Y-13424166D01*
X15679815Y-13491205D01*
X15663181Y-13511847D01*
X13361847Y-15813181D01*
X13300524Y-15846666D01*
X13274166Y-15849500D01*
X13128036Y-15849500D01*
X12989949Y-15890045D01*
X12868873Y-15967856D01*
X12774623Y-16076626D01*
X12774622Y-16076628D01*
X12714834Y-16207543D01*
X12694353Y-16350000D01*
X12694353Y-16350001D01*
X12695661Y-16359103D01*
X12685713Y-16428261D01*
X12660603Y-16464424D01*
X11111847Y-18013181D01*
X11050524Y-18046666D01*
X11024166Y-18049500D01*
X10928036Y-18049500D01*
X10789949Y-18090045D01*
X10668873Y-18167856D01*
X10574623Y-18276626D01*
X10574622Y-18276628D01*
X10514834Y-18407543D01*
X10494353Y-18550000D01*
X10514834Y-18692456D01*
X10533809Y-18734004D01*
X10574623Y-18823373D01*
X10668872Y-18932143D01*
X10789947Y-19009953D01*
X10789950Y-19009954D01*
X10789949Y-19009954D01*
X10928036Y-19050499D01*
X10928038Y-19050500D01*
X10928039Y-19050500D01*
X11071962Y-19050500D01*
X11071962Y-19050499D01*
X11210053Y-19009953D01*
X11331128Y-18932143D01*
X11425377Y-18823373D01*
X11485165Y-18692457D01*
X11505647Y-18550000D01*
X11504339Y-18540905D01*
X11514279Y-18471749D01*
X11539392Y-18435577D01*
X13088151Y-16886819D01*
X13149474Y-16853334D01*
X13175832Y-16850500D01*
X13271962Y-16850500D01*
X13271962Y-16850499D01*
X13410053Y-16809953D01*
X13531128Y-16732143D01*
X13625377Y-16623373D01*
X13685165Y-16492457D01*
X13704925Y-16355020D01*
X13733948Y-16291467D01*
X13739967Y-16285002D01*
X16240460Y-13784511D01*
X16249123Y-13769506D01*
X16280021Y-13715989D01*
X16300500Y-13639562D01*
X16300500Y-11463738D01*
X16320185Y-11396699D01*
X16330787Y-11382535D01*
X16331124Y-11382144D01*
X16331128Y-11382143D01*
X16425377Y-11273373D01*
X16485165Y-11142457D01*
X16505647Y-11000000D01*
X16504339Y-10990905D01*
X16514279Y-10921749D01*
X16539392Y-10885577D01*
X17548152Y-9876819D01*
X17609475Y-9843334D01*
X17635833Y-9840500D01*
X19175500Y-9840500D01*
X19242539Y-9860185D01*
X19288294Y-9912989D01*
X19299500Y-9964500D01*
X19299500Y-10434752D01*
X19311131Y-10493229D01*
X19311132Y-10493230D01*
X19355447Y-10559552D01*
X19421769Y-10603867D01*
X19421770Y-10603868D01*
X19480247Y-10615499D01*
X19480250Y-10615500D01*
X19480252Y-10615500D01*
X22375500Y-10615500D01*
X22442539Y-10635185D01*
X22488294Y-10687989D01*
X22499500Y-10739500D01*
X22499500Y-10880500D01*
X22479815Y-10947539D01*
X22427011Y-10993294D01*
X22375500Y-11004500D01*
X19480247Y-11004500D01*
X19421770Y-11016131D01*
X19421769Y-11016132D01*
X19355447Y-11060447D01*
X19311132Y-11126769D01*
X19311131Y-11126770D01*
X19299500Y-11185247D01*
X19299500Y-12174167D01*
X19279815Y-12241206D01*
X19263181Y-12261848D01*
X17709541Y-13815487D01*
X17709535Y-13815495D01*
X17669982Y-13884004D01*
X17669979Y-13884009D01*
X17649500Y-13960439D01*
X17649500Y-19224166D01*
X17629815Y-19291205D01*
X17613181Y-19311847D01*
X17462753Y-19462275D01*
X17401430Y-19495760D01*
X17331738Y-19490776D01*
X17275805Y-19448904D01*
X17251388Y-19383440D01*
X17255296Y-19342507D01*
X17270500Y-19285766D01*
X17270500Y-19134234D01*
X17231281Y-18987865D01*
X17155515Y-18856635D01*
X17048365Y-18749485D01*
X16982750Y-18711602D01*
X16917136Y-18673719D01*
X16843950Y-18654109D01*
X16770766Y-18634500D01*
X16619234Y-18634500D01*
X16472863Y-18673719D01*
X16341635Y-18749485D01*
X16341632Y-18749487D01*
X16234487Y-18856632D01*
X16234485Y-18856635D01*
X16158719Y-18987863D01*
X16141936Y-19050499D01*
X16119500Y-19134234D01*
X16119500Y-19285766D01*
X16126488Y-19311847D01*
X16158719Y-19432136D01*
X16195453Y-19495760D01*
X16234485Y-19563365D01*
X16341635Y-19670515D01*
X16472865Y-19746281D01*
X16619234Y-19785500D01*
X16619237Y-19785500D01*
X16623014Y-19786512D01*
X16682674Y-19822877D01*
X16713204Y-19885723D01*
X16704910Y-19955099D01*
X16660425Y-20008977D01*
X16657961Y-20010602D01*
X16568874Y-20067855D01*
X16474623Y-20176626D01*
X16474622Y-20176628D01*
X16414834Y-20307543D01*
X16394353Y-20450000D01*
X16414834Y-20592456D01*
X16441114Y-20650000D01*
X16474623Y-20723373D01*
X16568872Y-20832143D01*
X16689947Y-20909953D01*
X16689950Y-20909954D01*
X16689949Y-20909954D01*
X16828036Y-20950499D01*
X16828038Y-20950500D01*
X16828039Y-20950500D01*
X16971962Y-20950500D01*
X16971962Y-20950499D01*
X17110053Y-20909953D01*
X17231128Y-20832143D01*
X17325377Y-20723373D01*
X17385165Y-20592457D01*
X17405647Y-20450000D01*
X17404339Y-20440905D01*
X17414279Y-20371749D01*
X17439392Y-20335577D01*
X18190460Y-19584511D01*
X18230021Y-19515989D01*
X18250500Y-19439562D01*
X18250500Y-14175832D01*
X18270185Y-14108793D01*
X18286814Y-14088155D01*
X19235516Y-13139453D01*
X19296837Y-13105970D01*
X19366528Y-13110954D01*
X19392085Y-13124033D01*
X19405338Y-13132888D01*
X19421769Y-13143867D01*
X19421770Y-13143867D01*
X19421770Y-13143868D01*
X19480247Y-13155499D01*
X19480250Y-13155500D01*
X19480252Y-13155500D01*
X22375500Y-13155500D01*
X22442539Y-13175185D01*
X22488294Y-13227989D01*
X22499500Y-13279500D01*
X22499500Y-33375500D01*
X22479815Y-33442539D01*
X22427011Y-33488294D01*
X22375500Y-33499500D01*
X624500Y-33499500D01*
X557461Y-33479815D01*
X511706Y-33427011D01*
X500500Y-33375500D01*
X500500Y-28700000D01*
X1044353Y-28700000D01*
X1064834Y-28842456D01*
X1091114Y-28899999D01*
X1124623Y-28973373D01*
X1218872Y-29082143D01*
X1339947Y-29159953D01*
X1339950Y-29159954D01*
X1339949Y-29159954D01*
X1478036Y-29200499D01*
X1478038Y-29200500D01*
X1478039Y-29200500D01*
X1621962Y-29200500D01*
X1621962Y-29200499D01*
X1760053Y-29159953D01*
X1881128Y-29082143D01*
X1975377Y-28973373D01*
X2035165Y-28842457D01*
X2055647Y-28700000D01*
X2035165Y-28557543D01*
X1975377Y-28426627D01*
X1975375Y-28426625D01*
X1975374Y-28426622D01*
X1880787Y-28317462D01*
X1851762Y-28253906D01*
X1850500Y-28236260D01*
X1850500Y-27650000D01*
X2944353Y-27650000D01*
X2964834Y-27792456D01*
X2987669Y-27842456D01*
X3024623Y-27923373D01*
X3118872Y-28032143D01*
X3239947Y-28109953D01*
X3239950Y-28109954D01*
X3239949Y-28109954D01*
X3378036Y-28150499D01*
X3378038Y-28150500D01*
X3378039Y-28150500D01*
X3521962Y-28150500D01*
X3521962Y-28150499D01*
X3660053Y-28109953D01*
X3781128Y-28032143D01*
X3875377Y-27923373D01*
X3935165Y-27792457D01*
X3948458Y-27700000D01*
X4344353Y-27700000D01*
X4364834Y-27842456D01*
X4424622Y-27973371D01*
X4424623Y-27973373D01*
X4518872Y-28082143D01*
X4639947Y-28159953D01*
X4639950Y-28159954D01*
X4639949Y-28159954D01*
X4729136Y-28186141D01*
X4775280Y-28199690D01*
X4778036Y-28200499D01*
X4778038Y-28200500D01*
X4874167Y-28200500D01*
X4941206Y-28220185D01*
X4961848Y-28236819D01*
X7259540Y-30534511D01*
X7315489Y-30590460D01*
X7315491Y-30590461D01*
X7315495Y-30590464D01*
X7384004Y-30630017D01*
X7384011Y-30630021D01*
X7460438Y-30650500D01*
X7460440Y-30650500D01*
X11139560Y-30650500D01*
X11139562Y-30650500D01*
X11215989Y-30630021D01*
X11284511Y-30590460D01*
X11340460Y-30534511D01*
X11948522Y-29926447D01*
X12009843Y-29892964D01*
X12079534Y-29897948D01*
X12080992Y-29898501D01*
X12247544Y-29963024D01*
X12448024Y-30000500D01*
X12448026Y-30000500D01*
X12651974Y-30000500D01*
X12651976Y-30000500D01*
X12852456Y-29963024D01*
X13042637Y-29889348D01*
X13216041Y-29781981D01*
X13366764Y-29644579D01*
X13489673Y-29481821D01*
X13580582Y-29299250D01*
X13636397Y-29103083D01*
X13655215Y-28900000D01*
X13655215Y-28899999D01*
X13944785Y-28899999D01*
X13944785Y-28900000D01*
X13963602Y-29103082D01*
X14019417Y-29299247D01*
X14019422Y-29299260D01*
X14110327Y-29481821D01*
X14233237Y-29644581D01*
X14383958Y-29781980D01*
X14383960Y-29781982D01*
X14445480Y-29820073D01*
X14557363Y-29889348D01*
X14747544Y-29963024D01*
X14948024Y-30000500D01*
X14948026Y-30000500D01*
X15151974Y-30000500D01*
X15151976Y-30000500D01*
X15352456Y-29963024D01*
X15542637Y-29889348D01*
X15716041Y-29781981D01*
X15866764Y-29644579D01*
X15989673Y-29481821D01*
X16080582Y-29299250D01*
X16136397Y-29103083D01*
X16155215Y-28900000D01*
X16136397Y-28696917D01*
X16080582Y-28500750D01*
X16020579Y-28380247D01*
X20099500Y-28380247D01*
X20099500Y-30119752D01*
X20111131Y-30178229D01*
X20111132Y-30178230D01*
X20155447Y-30244552D01*
X20221769Y-30288867D01*
X20221770Y-30288868D01*
X20280247Y-30300499D01*
X20280250Y-30300500D01*
X20280252Y-30300500D01*
X22019750Y-30300500D01*
X22019751Y-30300499D01*
X22034568Y-30297552D01*
X22078229Y-30288868D01*
X22078229Y-30288867D01*
X22078231Y-30288867D01*
X22144552Y-30244552D01*
X22188867Y-30178231D01*
X22188867Y-30178229D01*
X22188868Y-30178229D01*
X22200499Y-30119752D01*
X22200500Y-30119750D01*
X22200500Y-28380249D01*
X22200499Y-28380247D01*
X22188868Y-28321770D01*
X22188867Y-28321769D01*
X22144552Y-28255447D01*
X22078230Y-28211132D01*
X22078229Y-28211131D01*
X22019752Y-28199500D01*
X22019748Y-28199500D01*
X20280252Y-28199500D01*
X20280247Y-28199500D01*
X20221770Y-28211131D01*
X20221769Y-28211132D01*
X20155447Y-28255447D01*
X20111132Y-28321769D01*
X20111131Y-28321770D01*
X20099500Y-28380247D01*
X16020579Y-28380247D01*
X15989673Y-28318179D01*
X15927811Y-28236260D01*
X15866762Y-28155418D01*
X15716041Y-28018019D01*
X15716039Y-28018017D01*
X15542642Y-27910655D01*
X15542635Y-27910651D01*
X15366604Y-27842457D01*
X15352456Y-27836976D01*
X15151976Y-27799500D01*
X14948024Y-27799500D01*
X14747544Y-27836976D01*
X14747541Y-27836976D01*
X14747541Y-27836977D01*
X14557364Y-27910651D01*
X14557357Y-27910655D01*
X14383960Y-28018017D01*
X14383958Y-28018019D01*
X14233237Y-28155418D01*
X14110327Y-28318178D01*
X14019422Y-28500739D01*
X14019417Y-28500752D01*
X13963602Y-28696917D01*
X13944785Y-28899999D01*
X13655215Y-28899999D01*
X13636397Y-28696917D01*
X13580582Y-28500750D01*
X13489673Y-28318179D01*
X13427811Y-28236260D01*
X13366762Y-28155418D01*
X13216041Y-28018019D01*
X13216039Y-28018017D01*
X13042642Y-27910655D01*
X13042635Y-27910651D01*
X12866604Y-27842457D01*
X12852456Y-27836976D01*
X12651976Y-27799500D01*
X12448024Y-27799500D01*
X12247544Y-27836976D01*
X12247541Y-27836976D01*
X12247541Y-27836977D01*
X12057364Y-27910651D01*
X12057357Y-27910655D01*
X11883960Y-28018017D01*
X11883958Y-28018019D01*
X11733237Y-28155418D01*
X11610327Y-28318178D01*
X11519422Y-28500739D01*
X11519417Y-28500752D01*
X11463602Y-28696917D01*
X11444785Y-28899999D01*
X11444785Y-28900000D01*
X11463602Y-29103082D01*
X11491321Y-29200500D01*
X11519417Y-29299247D01*
X11519419Y-29299252D01*
X11548247Y-29357149D01*
X11560507Y-29425935D01*
X11533633Y-29490429D01*
X11524927Y-29500100D01*
X11011848Y-30013181D01*
X10950525Y-30046666D01*
X10924167Y-30049500D01*
X8719798Y-30049500D01*
X8652759Y-30029815D01*
X8607004Y-29977011D01*
X8597060Y-29907853D01*
X8626085Y-29844297D01*
X8654520Y-29820073D01*
X8716041Y-29781981D01*
X8866764Y-29644579D01*
X8989673Y-29481821D01*
X9080582Y-29299250D01*
X9136397Y-29103083D01*
X9155215Y-28900000D01*
X9136397Y-28696917D01*
X9080582Y-28500750D01*
X8989673Y-28318179D01*
X8927811Y-28236260D01*
X8889963Y-28186141D01*
X8865271Y-28120779D01*
X8879836Y-28052445D01*
X8901232Y-28023737D01*
X11368152Y-25556819D01*
X11429475Y-25523334D01*
X11455833Y-25520500D01*
X12771499Y-25520500D01*
X12838538Y-25540185D01*
X12865211Y-25563296D01*
X12898872Y-25602143D01*
X13019947Y-25679953D01*
X13019950Y-25679954D01*
X13019949Y-25679954D01*
X13158036Y-25720499D01*
X13158038Y-25720500D01*
X13158039Y-25720500D01*
X13301962Y-25720500D01*
X13301962Y-25720499D01*
X13440053Y-25679953D01*
X13561128Y-25602143D01*
X13655377Y-25493373D01*
X13715165Y-25362457D01*
X13735647Y-25220000D01*
X13715165Y-25077543D01*
X13655377Y-24946627D01*
X13627309Y-24914234D01*
X16119500Y-24914234D01*
X16119500Y-25065766D01*
X16122656Y-25077543D01*
X16158719Y-25212136D01*
X16186327Y-25259953D01*
X16234485Y-25343365D01*
X16341635Y-25450515D01*
X16455281Y-25516129D01*
X16467760Y-25523334D01*
X16472865Y-25526281D01*
X16619234Y-25565500D01*
X16619236Y-25565500D01*
X16770764Y-25565500D01*
X16770766Y-25565500D01*
X16917135Y-25526281D01*
X17048365Y-25450515D01*
X17155515Y-25343365D01*
X17231281Y-25212135D01*
X17270500Y-25065766D01*
X17270500Y-24914234D01*
X17231281Y-24767865D01*
X17155515Y-24636635D01*
X17048365Y-24529485D01*
X16982750Y-24491602D01*
X16917136Y-24453719D01*
X16843950Y-24434109D01*
X16770766Y-24414500D01*
X16619234Y-24414500D01*
X16472863Y-24453719D01*
X16341635Y-24529485D01*
X16341632Y-24529487D01*
X16234487Y-24636632D01*
X16234485Y-24636635D01*
X16158719Y-24767863D01*
X16139965Y-24837856D01*
X16119500Y-24914234D01*
X13627309Y-24914234D01*
X13561128Y-24837857D01*
X13440053Y-24760047D01*
X13440051Y-24760046D01*
X13440049Y-24760045D01*
X13440050Y-24760045D01*
X13301963Y-24719500D01*
X13301961Y-24719500D01*
X13158039Y-24719500D01*
X13158036Y-24719500D01*
X13019949Y-24760045D01*
X12898873Y-24837856D01*
X12865212Y-24876703D01*
X12806433Y-24914477D01*
X12771499Y-24919500D01*
X11240438Y-24919500D01*
X11202224Y-24929739D01*
X11164009Y-24939979D01*
X11164004Y-24939982D01*
X11095495Y-24979535D01*
X11095487Y-24979541D01*
X8302287Y-27772740D01*
X8240964Y-27806225D01*
X8191823Y-27806948D01*
X8151977Y-27799500D01*
X8151976Y-27799500D01*
X7948024Y-27799500D01*
X7747544Y-27836976D01*
X7747541Y-27836976D01*
X7747541Y-27836977D01*
X7557364Y-27910651D01*
X7557357Y-27910655D01*
X7383960Y-28018017D01*
X7383958Y-28018019D01*
X7233237Y-28155418D01*
X7110327Y-28318178D01*
X7019422Y-28500739D01*
X7019417Y-28500752D01*
X6963602Y-28696917D01*
X6944785Y-28899999D01*
X6944785Y-28900002D01*
X6961077Y-29075833D01*
X6947662Y-29144402D01*
X6899304Y-29194834D01*
X6831358Y-29211116D01*
X6765396Y-29188078D01*
X6749925Y-29174954D01*
X5389395Y-27814424D01*
X5355910Y-27753101D01*
X5354339Y-27709094D01*
X5355647Y-27700000D01*
X5335165Y-27557543D01*
X5275377Y-27426627D01*
X5181128Y-27317857D01*
X5060053Y-27240047D01*
X5060051Y-27240046D01*
X5060049Y-27240045D01*
X5060050Y-27240045D01*
X4921963Y-27199500D01*
X4921961Y-27199500D01*
X4778039Y-27199500D01*
X4778036Y-27199500D01*
X4639949Y-27240045D01*
X4518873Y-27317856D01*
X4424623Y-27426626D01*
X4424622Y-27426628D01*
X4364834Y-27557543D01*
X4344353Y-27700000D01*
X3948458Y-27700000D01*
X3955647Y-27650000D01*
X3935483Y-27509755D01*
X3945427Y-27440599D01*
X3970537Y-27404432D01*
X6238152Y-25136819D01*
X6299475Y-25103334D01*
X6325833Y-25100500D01*
X9441499Y-25100500D01*
X9508538Y-25120185D01*
X9535211Y-25143296D01*
X9568872Y-25182143D01*
X9689947Y-25259953D01*
X9689950Y-25259954D01*
X9689949Y-25259954D01*
X9828036Y-25300499D01*
X9828038Y-25300500D01*
X9828039Y-25300500D01*
X9971962Y-25300500D01*
X9971962Y-25300499D01*
X10108398Y-25260439D01*
X10110050Y-25259954D01*
X10110050Y-25259953D01*
X10110053Y-25259953D01*
X10231128Y-25182143D01*
X10325377Y-25073373D01*
X10385165Y-24942457D01*
X10405647Y-24800000D01*
X10385165Y-24657543D01*
X10325377Y-24526627D01*
X10231128Y-24417857D01*
X10110053Y-24340047D01*
X10110051Y-24340046D01*
X10110049Y-24340045D01*
X10110050Y-24340045D01*
X9971963Y-24299500D01*
X9971961Y-24299500D01*
X9828039Y-24299500D01*
X9828036Y-24299500D01*
X9689949Y-24340045D01*
X9568873Y-24417856D01*
X9568872Y-24417856D01*
X9568872Y-24417857D01*
X9537798Y-24453719D01*
X9535212Y-24456703D01*
X9476433Y-24494477D01*
X9441499Y-24499500D01*
X6110438Y-24499500D01*
X6034010Y-24519978D01*
X5965489Y-24559540D01*
X5965486Y-24559542D01*
X3396864Y-27128163D01*
X3344118Y-27159459D01*
X3239949Y-27190045D01*
X3118873Y-27267856D01*
X3024623Y-27376626D01*
X3024622Y-27376628D01*
X2964834Y-27507543D01*
X2944353Y-27650000D01*
X1850500Y-27650000D01*
X1850500Y-25475833D01*
X1870185Y-25408794D01*
X1886819Y-25388152D01*
X2638339Y-24636632D01*
X3441612Y-23833358D01*
X3502933Y-23799875D01*
X3572625Y-23804859D01*
X3628558Y-23846731D01*
X3652029Y-23903393D01*
X3664834Y-23992456D01*
X3664836Y-23992460D01*
X3724623Y-24123373D01*
X3818872Y-24232143D01*
X3939947Y-24309953D01*
X3939950Y-24309954D01*
X3939949Y-24309954D01*
X4078036Y-24350499D01*
X4078038Y-24350500D01*
X4078039Y-24350500D01*
X4221962Y-24350500D01*
X4221962Y-24350499D01*
X4360053Y-24309953D01*
X4481128Y-24232143D01*
X4575377Y-24123373D01*
X4635165Y-23992457D01*
X4638132Y-23971813D01*
X4667154Y-23908262D01*
X4673175Y-23901794D01*
X10240460Y-18334511D01*
X10273879Y-18276627D01*
X10280021Y-18265989D01*
X10300500Y-18189562D01*
X10300500Y-16613738D01*
X10320185Y-16546699D01*
X10330787Y-16532535D01*
X10331124Y-16532144D01*
X10331128Y-16532143D01*
X10425377Y-16423373D01*
X10485165Y-16292457D01*
X10505647Y-16150000D01*
X10485165Y-16007543D01*
X10425377Y-15876627D01*
X10331128Y-15767857D01*
X10210053Y-15690047D01*
X10210051Y-15690046D01*
X10210049Y-15690045D01*
X10210050Y-15690045D01*
X10071963Y-15649500D01*
X10071961Y-15649500D01*
X9928039Y-15649500D01*
X9928036Y-15649500D01*
X9789949Y-15690045D01*
X9668873Y-15767856D01*
X9574623Y-15876626D01*
X9574622Y-15876628D01*
X9514834Y-16007543D01*
X9494353Y-16150000D01*
X9514834Y-16292456D01*
X9571022Y-16415489D01*
X9574623Y-16423373D01*
X9668872Y-16532143D01*
X9668875Y-16532144D01*
X9669213Y-16532535D01*
X9698238Y-16596091D01*
X9699500Y-16613738D01*
X9699500Y-17974166D01*
X9679815Y-18041205D01*
X9663181Y-18061847D01*
X4392695Y-23332332D01*
X4331372Y-23365817D01*
X4270080Y-23363628D01*
X4221963Y-23349500D01*
X4213184Y-23348238D01*
X4213481Y-23346166D01*
X4157794Y-23329815D01*
X4112039Y-23277011D01*
X4102095Y-23207853D01*
X4131120Y-23144297D01*
X4137152Y-23137819D01*
X6482515Y-20792456D01*
X8940460Y-18334511D01*
X8973879Y-18276627D01*
X8980021Y-18265989D01*
X9000500Y-18189562D01*
X9000500Y-16613738D01*
X9020185Y-16546699D01*
X9030787Y-16532535D01*
X9031124Y-16532144D01*
X9031128Y-16532143D01*
X9125377Y-16423373D01*
X9185165Y-16292457D01*
X9205647Y-16150000D01*
X9185165Y-16007543D01*
X9125377Y-15876627D01*
X9031128Y-15767857D01*
X8910053Y-15690047D01*
X8910051Y-15690046D01*
X8910049Y-15690045D01*
X8910050Y-15690045D01*
X8771963Y-15649500D01*
X8771961Y-15649500D01*
X8628039Y-15649500D01*
X8628036Y-15649500D01*
X8489949Y-15690045D01*
X8368873Y-15767856D01*
X8274623Y-15876626D01*
X8274622Y-15876628D01*
X8214834Y-16007543D01*
X8194353Y-16150000D01*
X8214834Y-16292456D01*
X8271022Y-16415489D01*
X8274623Y-16423373D01*
X8368872Y-16532143D01*
X8368875Y-16532144D01*
X8369213Y-16532535D01*
X8398238Y-16596091D01*
X8399500Y-16613738D01*
X8399500Y-17974167D01*
X8379815Y-18041206D01*
X8363181Y-18061848D01*
X1309541Y-25115487D01*
X1309535Y-25115495D01*
X1269982Y-25184004D01*
X1269979Y-25184009D01*
X1249500Y-25260439D01*
X1249500Y-28236260D01*
X1229815Y-28303299D01*
X1219213Y-28317462D01*
X1124625Y-28426622D01*
X1124622Y-28426628D01*
X1064834Y-28557543D01*
X1044353Y-28700000D01*
X500500Y-28700000D01*
X500500Y-20650000D01*
X3994353Y-20650000D01*
X4014834Y-20792456D01*
X4032959Y-20832143D01*
X4074623Y-20923373D01*
X4168872Y-21032143D01*
X4289947Y-21109953D01*
X4289950Y-21109954D01*
X4289949Y-21109954D01*
X4428036Y-21150499D01*
X4428038Y-21150500D01*
X4428039Y-21150500D01*
X4571962Y-21150500D01*
X4571962Y-21150499D01*
X4710053Y-21109953D01*
X4831128Y-21032143D01*
X4925377Y-20923373D01*
X4985165Y-20792457D01*
X5005647Y-20650000D01*
X4985165Y-20507543D01*
X4925377Y-20376627D01*
X4925375Y-20376625D01*
X4925374Y-20376622D01*
X4830787Y-20267462D01*
X4801762Y-20203906D01*
X4800500Y-20186260D01*
X4800500Y-19025833D01*
X4820185Y-18958794D01*
X4836819Y-18938152D01*
X15538152Y-8236819D01*
X15599475Y-8203334D01*
X15625833Y-8200500D01*
X15671962Y-8200500D01*
X15671962Y-8200499D01*
X15810053Y-8159953D01*
X15931128Y-8082143D01*
X16025377Y-7973373D01*
X16085165Y-7842457D01*
X16105647Y-7700000D01*
X16085165Y-7557543D01*
X16025377Y-7426627D01*
X15931128Y-7317857D01*
X15810053Y-7240047D01*
X15810051Y-7240046D01*
X15810049Y-7240045D01*
X15810050Y-7240045D01*
X15671963Y-7199500D01*
X15671961Y-7199500D01*
X15528039Y-7199500D01*
X15528036Y-7199500D01*
X15389949Y-7240045D01*
X15268873Y-7317856D01*
X15174623Y-7426626D01*
X15174622Y-7426628D01*
X15114834Y-7557543D01*
X15094353Y-7700000D01*
X15094353Y-7700002D01*
X15101945Y-7752814D01*
X15092000Y-7821972D01*
X15066888Y-7858139D01*
X8412181Y-14512847D01*
X8350858Y-14546332D01*
X8281166Y-14541348D01*
X8225233Y-14499476D01*
X8200816Y-14434012D01*
X8200500Y-14425166D01*
X8200500Y-11860439D01*
X8200500Y-11860438D01*
X8180021Y-11784011D01*
X8180017Y-11784004D01*
X8140464Y-11715495D01*
X8140458Y-11715487D01*
X5639395Y-9214424D01*
X5605910Y-9153101D01*
X5604339Y-9109094D01*
X5605647Y-9100000D01*
X5585165Y-8957543D01*
X5525377Y-8826627D01*
X5431128Y-8717857D01*
X5310053Y-8640047D01*
X5310051Y-8640046D01*
X5310049Y-8640045D01*
X5310050Y-8640045D01*
X5171963Y-8599500D01*
X5171961Y-8599500D01*
X5028039Y-8599500D01*
X5028036Y-8599500D01*
X4889949Y-8640045D01*
X4768873Y-8717856D01*
X4674623Y-8826626D01*
X4674622Y-8826628D01*
X4614834Y-8957543D01*
X4594353Y-9100000D01*
X4614834Y-9242456D01*
X4640903Y-9299538D01*
X4674623Y-9373373D01*
X4768872Y-9482143D01*
X4889947Y-9559953D01*
X4889950Y-9559954D01*
X4889949Y-9559954D01*
X4997107Y-9591417D01*
X5025280Y-9599690D01*
X5028036Y-9600499D01*
X5028038Y-9600500D01*
X5124167Y-9600500D01*
X5191206Y-9620185D01*
X5211848Y-9636819D01*
X7563181Y-11988152D01*
X7596666Y-12049475D01*
X7599500Y-12075833D01*
X7599500Y-14524166D01*
X7579815Y-14591205D01*
X7563181Y-14611847D01*
X5716143Y-16458884D01*
X5654820Y-16492369D01*
X5593535Y-16490183D01*
X5585196Y-16487735D01*
X5441274Y-16487735D01*
X5441271Y-16487735D01*
X5303184Y-16528280D01*
X5182108Y-16606091D01*
X5087858Y-16714861D01*
X5087857Y-16714863D01*
X5028069Y-16845778D01*
X5007588Y-16988235D01*
X5028069Y-17130691D01*
X5070759Y-17224167D01*
X5087858Y-17261608D01*
X5182107Y-17370378D01*
X5279453Y-17432938D01*
X5325207Y-17485741D01*
X5335151Y-17554899D01*
X5306126Y-17618455D01*
X5300094Y-17624934D01*
X4315489Y-18609540D01*
X4259541Y-18665487D01*
X4259535Y-18665495D01*
X4219982Y-18734004D01*
X4219979Y-18734009D01*
X4199500Y-18810439D01*
X4199500Y-20186260D01*
X4179815Y-20253299D01*
X4169213Y-20267462D01*
X4074625Y-20376622D01*
X4074622Y-20376628D01*
X4014834Y-20507543D01*
X3994353Y-20650000D01*
X500500Y-20650000D01*
X500500Y-20359500D01*
X520185Y-20292461D01*
X572989Y-20246706D01*
X624500Y-20235500D01*
X3569750Y-20235500D01*
X3569751Y-20235499D01*
X3584568Y-20232552D01*
X3628229Y-20223868D01*
X3628229Y-20223867D01*
X3628231Y-20223867D01*
X3694552Y-20179552D01*
X3738867Y-20113231D01*
X3738867Y-20113229D01*
X3738868Y-20113229D01*
X3750499Y-20054752D01*
X3750500Y-20054750D01*
X3750500Y-18525833D01*
X3770185Y-18458794D01*
X3786819Y-18438152D01*
X4212960Y-18012011D01*
X4640460Y-17584511D01*
X4680022Y-17515988D01*
X4700500Y-17439562D01*
X4700500Y-17360438D01*
X4700500Y-16775832D01*
X4720185Y-16708793D01*
X4736814Y-16688156D01*
X6794288Y-14630681D01*
X6855609Y-14597198D01*
X6862531Y-14595897D01*
X6933126Y-14584717D01*
X7053220Y-14523526D01*
X7148528Y-14428218D01*
X7209719Y-14308124D01*
X7220489Y-14240124D01*
X7230804Y-14175000D01*
X7230804Y-14174995D01*
X7209720Y-14041876D01*
X7209719Y-14041874D01*
X7209719Y-14041872D01*
X7148528Y-13921778D01*
X7148526Y-13921776D01*
X7148523Y-13921772D01*
X7053225Y-13826474D01*
X7053221Y-13826471D01*
X7053220Y-13826470D01*
X6933126Y-13765279D01*
X6933124Y-13765278D01*
X6933121Y-13765277D01*
X6800002Y-13744194D01*
X6799998Y-13744194D01*
X6666878Y-13765277D01*
X6546778Y-13826471D01*
X6546774Y-13826474D01*
X6451476Y-13921772D01*
X6451473Y-13921776D01*
X6390279Y-14041876D01*
X6369695Y-14171841D01*
X6339766Y-14234976D01*
X6334903Y-14240124D01*
X4215489Y-16359540D01*
X4159541Y-16415487D01*
X4159535Y-16415495D01*
X4119982Y-16484004D01*
X4119979Y-16484009D01*
X4112772Y-16510908D01*
X4103182Y-16546699D01*
X4099500Y-16560439D01*
X4099500Y-17224167D01*
X4079815Y-17291206D01*
X4063181Y-17311848D01*
X3962181Y-17412848D01*
X3900858Y-17446333D01*
X3831166Y-17441349D01*
X3775233Y-17399477D01*
X3750816Y-17334013D01*
X3750500Y-17325167D01*
X3750500Y-16010832D01*
X3770185Y-15943793D01*
X3786814Y-15923156D01*
X5665576Y-14044393D01*
X5726897Y-14010910D01*
X5732972Y-14009768D01*
X5733121Y-14009719D01*
X5733126Y-14009719D01*
X5853220Y-13948528D01*
X5948528Y-13853220D01*
X6009719Y-13733126D01*
X6024538Y-13639562D01*
X6030804Y-13600002D01*
X6030804Y-13599997D01*
X6009720Y-13466878D01*
X6009719Y-13466876D01*
X6009719Y-13466874D01*
X5948528Y-13346780D01*
X5948526Y-13346778D01*
X5948523Y-13346774D01*
X5853225Y-13251476D01*
X5853221Y-13251473D01*
X5853220Y-13251472D01*
X5733126Y-13190281D01*
X5733124Y-13190280D01*
X5733121Y-13190279D01*
X5600002Y-13169196D01*
X5599998Y-13169196D01*
X5466878Y-13190279D01*
X5346778Y-13251473D01*
X5346774Y-13251476D01*
X5251476Y-13346774D01*
X5251473Y-13346778D01*
X5190279Y-13466878D01*
X5169196Y-13599997D01*
X5169196Y-13600000D01*
X5171732Y-13616010D01*
X5162776Y-13685304D01*
X5136939Y-13723088D01*
X3962181Y-14897847D01*
X3900858Y-14931332D01*
X3831166Y-14926348D01*
X3775233Y-14884476D01*
X3750816Y-14819012D01*
X3750500Y-14810166D01*
X3750500Y-13425833D01*
X3770185Y-13358794D01*
X3786819Y-13338152D01*
X4188152Y-12936819D01*
X4249475Y-12903334D01*
X4275833Y-12900500D01*
X6447389Y-12900500D01*
X6514428Y-12920185D01*
X6535070Y-12936819D01*
X6546774Y-12948523D01*
X6546778Y-12948526D01*
X6546780Y-12948528D01*
X6666874Y-13009719D01*
X6666876Y-13009719D01*
X6666878Y-13009720D01*
X6799998Y-13030804D01*
X6800000Y-13030804D01*
X6800002Y-13030804D01*
X6933121Y-13009720D01*
X6933121Y-13009719D01*
X6933126Y-13009719D01*
X7053220Y-12948528D01*
X7148528Y-12853220D01*
X7209719Y-12733126D01*
X7209720Y-12733121D01*
X7230804Y-12600002D01*
X7230804Y-12599997D01*
X7209720Y-12466878D01*
X7209719Y-12466876D01*
X7209719Y-12466874D01*
X7148528Y-12346780D01*
X7148526Y-12346778D01*
X7148523Y-12346774D01*
X7053225Y-12251476D01*
X7053221Y-12251473D01*
X7053220Y-12251472D01*
X6933126Y-12190281D01*
X6933124Y-12190280D01*
X6933121Y-12190279D01*
X6800002Y-12169196D01*
X6799998Y-12169196D01*
X6666878Y-12190279D01*
X6546778Y-12251473D01*
X6546774Y-12251476D01*
X6535070Y-12263181D01*
X6473747Y-12296666D01*
X6447389Y-12299500D01*
X4060438Y-12299500D01*
X3984010Y-12319978D01*
X3947639Y-12340977D01*
X3936499Y-12347409D01*
X3868601Y-12363882D01*
X3802574Y-12341030D01*
X3759383Y-12286109D01*
X3750500Y-12240022D01*
X3750500Y-11934500D01*
X3770185Y-11867461D01*
X3822989Y-11821706D01*
X3874500Y-11810500D01*
X5257389Y-11810500D01*
X5324428Y-11830185D01*
X5345070Y-11846819D01*
X5350849Y-11852598D01*
X5350853Y-11852601D01*
X5350855Y-11852603D01*
X5470949Y-11913794D01*
X5470951Y-11913794D01*
X5470953Y-11913795D01*
X5604073Y-11934879D01*
X5604075Y-11934879D01*
X5604077Y-11934879D01*
X5737196Y-11913795D01*
X5737196Y-11913794D01*
X5737201Y-11913794D01*
X5857295Y-11852603D01*
X5952603Y-11757295D01*
X6013794Y-11637201D01*
X6034879Y-11504075D01*
X6028490Y-11463738D01*
X6013795Y-11370953D01*
X6013794Y-11370951D01*
X6013794Y-11370949D01*
X5952603Y-11250855D01*
X5952601Y-11250853D01*
X5952598Y-11250849D01*
X5857300Y-11155551D01*
X5857296Y-11155548D01*
X5857295Y-11155547D01*
X5737201Y-11094356D01*
X5737199Y-11094355D01*
X5737196Y-11094354D01*
X5604077Y-11073271D01*
X5604073Y-11073271D01*
X5470953Y-11094354D01*
X5350853Y-11155548D01*
X5350849Y-11155551D01*
X5333220Y-11173181D01*
X5271897Y-11206666D01*
X5245539Y-11209500D01*
X3874500Y-11209500D01*
X3807461Y-11189815D01*
X3761706Y-11137011D01*
X3750500Y-11085500D01*
X3750500Y-10635249D01*
X3750499Y-10635247D01*
X3738868Y-10576770D01*
X3738867Y-10576769D01*
X3694552Y-10510447D01*
X3628230Y-10466132D01*
X3628229Y-10466131D01*
X3569752Y-10454500D01*
X3569748Y-10454500D01*
X624500Y-10454500D01*
X557461Y-10434815D01*
X511706Y-10382011D01*
X500500Y-10330500D01*
X500500Y-10189500D01*
X520185Y-10122461D01*
X572989Y-10076706D01*
X624500Y-10065500D01*
X3569750Y-10065500D01*
X3569751Y-10065499D01*
X3584568Y-10062552D01*
X3628229Y-10053868D01*
X3628229Y-10053867D01*
X3628231Y-10053867D01*
X3694552Y-10009552D01*
X3738867Y-9943231D01*
X3738867Y-9943229D01*
X3738868Y-9943229D01*
X3750499Y-9884752D01*
X3750500Y-9884750D01*
X3750500Y-8370833D01*
X3770185Y-8303794D01*
X3786819Y-8283152D01*
X3933152Y-8136819D01*
X3994475Y-8103334D01*
X4020833Y-8100500D01*
X6947389Y-8100500D01*
X7014428Y-8120185D01*
X7035070Y-8136819D01*
X7046774Y-8148523D01*
X7046778Y-8148526D01*
X7046780Y-8148528D01*
X7166874Y-8209719D01*
X7166876Y-8209719D01*
X7166878Y-8209720D01*
X7299998Y-8230804D01*
X7300000Y-8230804D01*
X7300002Y-8230804D01*
X7433121Y-8209720D01*
X7433121Y-8209719D01*
X7433126Y-8209719D01*
X7553220Y-8148528D01*
X7648528Y-8053220D01*
X7709719Y-7933126D01*
X7715797Y-7894752D01*
X7730804Y-7800002D01*
X7730804Y-7799997D01*
X7709720Y-7666878D01*
X7709719Y-7666876D01*
X7709719Y-7666874D01*
X7648528Y-7546780D01*
X7648526Y-7546778D01*
X7648523Y-7546774D01*
X7553225Y-7451476D01*
X7553221Y-7451473D01*
X7553220Y-7451472D01*
X7433126Y-7390281D01*
X7433124Y-7390280D01*
X7433121Y-7390279D01*
X7300002Y-7369196D01*
X7299998Y-7369196D01*
X7166878Y-7390279D01*
X7046778Y-7451473D01*
X7046774Y-7451476D01*
X7035070Y-7463181D01*
X6973747Y-7496666D01*
X6947389Y-7499500D01*
X3805438Y-7499500D01*
X3767224Y-7509739D01*
X3729009Y-7519979D01*
X3729008Y-7519980D01*
X3682591Y-7546778D01*
X3682592Y-7546779D01*
X3660487Y-7559541D01*
X3341848Y-7878181D01*
X3280525Y-7911666D01*
X3254167Y-7914500D01*
X624500Y-7914500D01*
X557461Y-7894815D01*
X511706Y-7842011D01*
X500500Y-7790500D01*
X500500Y-5109500D01*
X520185Y-5042461D01*
X572989Y-4996706D01*
X624500Y-4985500D01*
X3569750Y-4985500D01*
X3569751Y-4985499D01*
X3584568Y-4982552D01*
X3628229Y-4973868D01*
X3628229Y-4973867D01*
X3628231Y-4973867D01*
X3694552Y-4929552D01*
X3738867Y-4863231D01*
X3738867Y-4863229D01*
X3738868Y-4863229D01*
X3750499Y-4804752D01*
X3750500Y-4804750D01*
X3750500Y-4424833D01*
X3770185Y-4357794D01*
X3822989Y-4312039D01*
X3892147Y-4302095D01*
X3955703Y-4331120D01*
X3962181Y-4337152D01*
X5289608Y-5664579D01*
X5323093Y-5725902D01*
X5324400Y-5732862D01*
X5340279Y-5833121D01*
X5340280Y-5833124D01*
X5340281Y-5833126D01*
X5401472Y-5953220D01*
X5401473Y-5953221D01*
X5401476Y-5953225D01*
X5496774Y-6048523D01*
X5496778Y-6048526D01*
X5496780Y-6048528D01*
X5616874Y-6109719D01*
X5616876Y-6109719D01*
X5616878Y-6109720D01*
X5749998Y-6130804D01*
X5750000Y-6130804D01*
X5750002Y-6130804D01*
X5883121Y-6109720D01*
X5883121Y-6109719D01*
X5883126Y-6109719D01*
X6003220Y-6048528D01*
X6098528Y-5953220D01*
X6159719Y-5833126D01*
X6159720Y-5833121D01*
X6180804Y-5700002D01*
X6180804Y-5699997D01*
X6159720Y-5566878D01*
X6159719Y-5566876D01*
X6159719Y-5566874D01*
X6098528Y-5446780D01*
X6098526Y-5446778D01*
X6098523Y-5446774D01*
X6003225Y-5351476D01*
X6003221Y-5351473D01*
X6003220Y-5351472D01*
X5883126Y-5290281D01*
X5883124Y-5290280D01*
X5883121Y-5290279D01*
X5782862Y-5274400D01*
X5719727Y-5244471D01*
X5714579Y-5239608D01*
X4124512Y-3649541D01*
X4124507Y-3649537D01*
X4107951Y-3639979D01*
X4107949Y-3639978D01*
X4055991Y-3609980D01*
X4055990Y-3609979D01*
X4030513Y-3603152D01*
X3979562Y-3589500D01*
X3979560Y-3589500D01*
X3874500Y-3589500D01*
X3807461Y-3569815D01*
X3761706Y-3517011D01*
X3750500Y-3465500D01*
X3750500Y-3015249D01*
X3750499Y-3015247D01*
X3738868Y-2956770D01*
X3738867Y-2956769D01*
X3694552Y-2890447D01*
X3628230Y-2846132D01*
X3628229Y-2846131D01*
X3569752Y-2834500D01*
X3569748Y-2834500D01*
X624500Y-2834500D01*
X557461Y-2814815D01*
X511706Y-2762011D01*
X500500Y-2710500D01*
X500500Y-2579500D01*
X520185Y-2512461D01*
X572989Y-2466706D01*
X624500Y-2455500D01*
X3569750Y-2455500D01*
X3569751Y-2455499D01*
X3584568Y-2452552D01*
X3628229Y-2443868D01*
X3628229Y-2443867D01*
X3628231Y-2443867D01*
X3694552Y-2399552D01*
X3738867Y-2333231D01*
X3738867Y-2333229D01*
X3738868Y-2333229D01*
X3750499Y-2274752D01*
X3750500Y-2274750D01*
X3750500Y-2074833D01*
X3770185Y-2007794D01*
X3822989Y-1962039D01*
X3892147Y-1952095D01*
X3955703Y-1981120D01*
X3962181Y-1987152D01*
X5463181Y-3488152D01*
X5496666Y-3549475D01*
X5499500Y-3575833D01*
X5499500Y-3747389D01*
X5479815Y-3814428D01*
X5463181Y-3835070D01*
X5451476Y-3846774D01*
X5451473Y-3846778D01*
X5390279Y-3966878D01*
X5369196Y-4099997D01*
X5369196Y-4100002D01*
X5390279Y-4233121D01*
X5390280Y-4233124D01*
X5390281Y-4233126D01*
X5443285Y-4337152D01*
X5451473Y-4353221D01*
X5451476Y-4353225D01*
X5546774Y-4448523D01*
X5546778Y-4448526D01*
X5546780Y-4448528D01*
X5666874Y-4509719D01*
X5666876Y-4509719D01*
X5666878Y-4509720D01*
X5799998Y-4530804D01*
X5800000Y-4530804D01*
X5800002Y-4530804D01*
X5933121Y-4509720D01*
X5933121Y-4509719D01*
X5933126Y-4509719D01*
X6053220Y-4448528D01*
X6148528Y-4353220D01*
X6209719Y-4233126D01*
X6209720Y-4233121D01*
X6230804Y-4100002D01*
X6230804Y-4099997D01*
X6209720Y-3966878D01*
X6209719Y-3966876D01*
X6209719Y-3966874D01*
X6148528Y-3846780D01*
X6148526Y-3846778D01*
X6148523Y-3846774D01*
X6136819Y-3835070D01*
X6103334Y-3773747D01*
X6100500Y-3747389D01*
X6100500Y-3360440D01*
X6100500Y-3360438D01*
X6080022Y-3284012D01*
X6040460Y-3215489D01*
X3944511Y-1119540D01*
X3944509Y-1119539D01*
X3944504Y-1119535D01*
X3875995Y-1079982D01*
X3875992Y-1079980D01*
X3875989Y-1079979D01*
X3872976Y-1079171D01*
X3842404Y-1070979D01*
X3782744Y-1034613D01*
X3752216Y-971765D01*
X3750500Y-951205D01*
X3750500Y-624500D01*
X3770185Y-557461D01*
X3822989Y-511706D01*
X3874500Y-500500D01*
X22375500Y-500500D01*
X22442539Y-520185D01*
G37*
%TD.AperFunction*%
%TD*%
M02*
