%TF.GenerationSoftware,KiCad,Pcbnew,8.0.6*%
%TF.CreationDate,2024-11-28T00:53:07-05:00*%
%TF.ProjectId,wyt-dongle,7779742d-646f-46e6-976c-652e6b696361,rev?*%
%TF.SameCoordinates,Original*%
%TF.FileFunction,Soldermask,Top*%
%TF.FilePolarity,Negative*%
%FSLAX46Y46*%
G04 Gerber Fmt 4.6, Leading zero omitted, Abs format (unit mm)*
G04 Created by KiCad (PCBNEW 8.0.6) date 2024-11-28 00:53:07*
%MOMM*%
%LPD*%
G01*
G04 APERTURE LIST*
G04 Aperture macros list*
%AMRoundRect*
0 Rectangle with rounded corners*
0 $1 Rounding radius*
0 $2 $3 $4 $5 $6 $7 $8 $9 X,Y pos of 4 corners*
0 Add a 4 corners polygon primitive as box body*
4,1,4,$2,$3,$4,$5,$6,$7,$8,$9,$2,$3,0*
0 Add four circle primitives for the rounded corners*
1,1,$1+$1,$2,$3*
1,1,$1+$1,$4,$5*
1,1,$1+$1,$6,$7*
1,1,$1+$1,$8,$9*
0 Add four rect primitives between the rounded corners*
20,1,$1+$1,$2,$3,$4,$5,0*
20,1,$1+$1,$4,$5,$6,$7,0*
20,1,$1+$1,$6,$7,$8,$9,0*
20,1,$1+$1,$8,$9,$2,$3,0*%
G04 Aperture macros list end*
%ADD10R,1.800000X1.350000*%
%ADD11RoundRect,0.200000X-0.275000X0.200000X-0.275000X-0.200000X0.275000X-0.200000X0.275000X0.200000X0*%
%ADD12RoundRect,0.150000X-0.150000X0.512500X-0.150000X-0.512500X0.150000X-0.512500X0.150000X0.512500X0*%
%ADD13RoundRect,0.140000X0.170000X-0.140000X0.170000X0.140000X-0.170000X0.140000X-0.170000X-0.140000X0*%
%ADD14R,0.800000X0.400000*%
%ADD15R,0.400000X0.800000*%
%ADD16R,1.200000X1.200000*%
%ADD17R,0.800000X0.800000*%
%ADD18RoundRect,0.140000X-0.170000X0.140000X-0.170000X-0.140000X0.170000X-0.140000X0.170000X0.140000X0*%
%ADD19C,1.800000*%
%ADD20O,1.900000X3.050000*%
%ADD21RoundRect,0.200000X0.200000X0.275000X-0.200000X0.275000X-0.200000X-0.275000X0.200000X-0.275000X0*%
%ADD22RoundRect,0.150000X0.150000X-0.587500X0.150000X0.587500X-0.150000X0.587500X-0.150000X-0.587500X0*%
%ADD23RoundRect,0.200000X-0.200000X-0.275000X0.200000X-0.275000X0.200000X0.275000X-0.200000X0.275000X0*%
%ADD24C,0.650000*%
%ADD25R,1.240000X0.600000*%
%ADD26R,1.240000X0.300000*%
%ADD27O,2.100000X1.000000*%
%ADD28O,1.800000X1.000000*%
%ADD29RoundRect,0.140000X0.140000X0.170000X-0.140000X0.170000X-0.140000X-0.170000X0.140000X-0.170000X0*%
%ADD30RoundRect,0.150000X-0.150000X0.587500X-0.150000X-0.587500X0.150000X-0.587500X0.150000X0.587500X0*%
%ADD31R,1.700000X1.700000*%
%ADD32O,1.700000X1.700000*%
G04 APERTURE END LIST*
D10*
%TO.C,SW1*%
X2300000Y-28475000D03*
X2300000Y-24325000D03*
%TD*%
D11*
%TO.C,R4*%
X5200000Y-27075000D03*
X5200000Y-28725000D03*
%TD*%
D12*
%TO.C,U1*%
X7650000Y-23162500D03*
X5750000Y-23162500D03*
X6700000Y-25437500D03*
%TD*%
D11*
%TO.C,R3*%
X6700000Y-27075000D03*
X6700000Y-28725000D03*
%TD*%
D13*
%TO.C,C1*%
X4500000Y-25480000D03*
X4500000Y-24520000D03*
%TD*%
D14*
%TO.C,U2*%
X1700000Y-2050000D03*
X1700000Y-2900000D03*
X1700000Y-3750000D03*
X1700000Y-4600000D03*
X1700000Y-5450000D03*
X1700000Y-6300000D03*
X1700000Y-7150000D03*
X1700000Y-8000000D03*
X1700000Y-8850000D03*
X1700000Y-9700000D03*
X1700000Y-10550000D03*
X1700000Y-11400000D03*
X1700000Y-12250000D03*
X1700000Y-13100000D03*
X1700000Y-13950000D03*
D15*
X2750000Y-15000000D03*
X3600000Y-15000000D03*
X4450000Y-15000000D03*
X5300000Y-15000000D03*
X6150000Y-15000000D03*
X7000000Y-15000000D03*
X7850000Y-15000000D03*
X8700000Y-15000000D03*
X9550000Y-15000000D03*
X10400000Y-15000000D03*
X11250000Y-15000000D03*
X12100000Y-15000000D03*
X12950000Y-15000000D03*
X13800000Y-15000000D03*
X14650000Y-15000000D03*
D14*
X15700000Y-13950000D03*
X15700000Y-13100000D03*
X15700000Y-12250000D03*
X15700000Y-11400000D03*
X15700000Y-10550000D03*
X15700000Y-9700000D03*
X15700000Y-8850000D03*
X15700000Y-8000000D03*
X15700000Y-7150000D03*
X15700000Y-6300000D03*
X15700000Y-5450000D03*
X15700000Y-4600000D03*
X15700000Y-3750000D03*
X15700000Y-2900000D03*
X15700000Y-2050000D03*
D15*
X14650000Y-1000000D03*
X13800000Y-1000000D03*
X12950000Y-1000000D03*
X12100000Y-1000000D03*
X11250000Y-1000000D03*
X10400000Y-1000000D03*
X9550000Y-1000000D03*
X8700000Y-1000000D03*
X7850000Y-1000000D03*
X7000000Y-1000000D03*
X6150000Y-1000000D03*
X5300000Y-1000000D03*
X4450000Y-1000000D03*
X3600000Y-1000000D03*
X2750000Y-1000000D03*
D16*
X8700000Y-8000000D03*
D17*
X1700000Y-1000000D03*
X1700000Y-15000000D03*
X15700000Y-15000000D03*
X15700000Y-1000000D03*
D16*
X7050000Y-6350000D03*
X7050000Y-8000000D03*
X7050000Y-9650000D03*
X8700000Y-9650000D03*
X10350000Y-9650000D03*
X10350000Y-8000000D03*
X10350000Y-6350000D03*
X8700000Y-6350000D03*
%TD*%
D18*
%TO.C,C2*%
X4500000Y-22620000D03*
X4500000Y-23580000D03*
%TD*%
D19*
%TO.C,J1*%
X12100000Y-30887500D03*
X9600000Y-30887500D03*
X7600000Y-30887500D03*
X5100000Y-30887500D03*
D20*
X14450000Y-33287500D03*
X2750000Y-33287500D03*
%TD*%
D13*
%TO.C,C4*%
X7900000Y-18180000D03*
X7900000Y-17220000D03*
%TD*%
D21*
%TO.C,R1*%
X3225000Y-18400000D03*
X1575000Y-18400000D03*
%TD*%
D22*
%TO.C,Q2*%
X4650000Y-21200000D03*
X6550000Y-21200000D03*
X5600000Y-19325000D03*
%TD*%
D23*
%TO.C,R2*%
X5075000Y-17600000D03*
X6725000Y-17600000D03*
%TD*%
D24*
%TO.C,P1*%
X10695000Y-24990000D03*
X10695000Y-19210000D03*
D25*
X9575000Y-25300000D03*
X9575000Y-24500000D03*
D26*
X9575000Y-23350000D03*
X9575000Y-22350000D03*
X9575000Y-21850000D03*
X9575000Y-20850000D03*
D25*
X9575000Y-19700000D03*
X9575000Y-18900000D03*
X9575000Y-18900000D03*
X9575000Y-19700000D03*
D26*
X9575000Y-20350000D03*
X9575000Y-21350000D03*
X9575000Y-22850000D03*
X9575000Y-23850000D03*
D25*
X9575000Y-24500000D03*
X9575000Y-25300000D03*
D27*
X10175000Y-26420000D03*
D28*
X14375000Y-26420000D03*
D27*
X10175000Y-17780000D03*
D28*
X14375000Y-17780000D03*
%TD*%
D29*
%TO.C,C3*%
X3980000Y-17200000D03*
X3020000Y-17200000D03*
%TD*%
D30*
%TO.C,Q1*%
X2950000Y-20200000D03*
X1050000Y-20200000D03*
X2000000Y-22075000D03*
%TD*%
D31*
%TO.C,J3*%
X12800000Y-28600000D03*
D32*
X15340000Y-28600000D03*
%TD*%
M02*
