%TF.GenerationSoftware,KiCad,Pcbnew,8.0.6*%
%TF.CreationDate,2024-12-05T18:18:12-05:00*%
%TF.ProjectId,wyt-dongle,7779742d-646f-46e6-976c-652e6b696361,rev?*%
%TF.SameCoordinates,Original*%
%TF.FileFunction,Soldermask,Top*%
%TF.FilePolarity,Negative*%
%FSLAX46Y46*%
G04 Gerber Fmt 4.6, Leading zero omitted, Abs format (unit mm)*
G04 Created by KiCad (PCBNEW 8.0.6) date 2024-12-05 18:18:12*
%MOMM*%
%LPD*%
G01*
G04 APERTURE LIST*
G04 Aperture macros list*
%AMRoundRect*
0 Rectangle with rounded corners*
0 $1 Rounding radius*
0 $2 $3 $4 $5 $6 $7 $8 $9 X,Y pos of 4 corners*
0 Add a 4 corners polygon primitive as box body*
4,1,4,$2,$3,$4,$5,$6,$7,$8,$9,$2,$3,0*
0 Add four circle primitives for the rounded corners*
1,1,$1+$1,$2,$3*
1,1,$1+$1,$4,$5*
1,1,$1+$1,$6,$7*
1,1,$1+$1,$8,$9*
0 Add four rect primitives between the rounded corners*
20,1,$1+$1,$2,$3,$4,$5,0*
20,1,$1+$1,$4,$5,$6,$7,0*
20,1,$1+$1,$6,$7,$8,$9,0*
20,1,$1+$1,$8,$9,$2,$3,0*%
G04 Aperture macros list end*
%ADD10R,1.350000X1.800000*%
%ADD11RoundRect,0.135000X-0.185000X0.135000X-0.185000X-0.135000X0.185000X-0.135000X0.185000X0.135000X0*%
%ADD12RoundRect,0.140000X-0.170000X0.140000X-0.170000X-0.140000X0.170000X-0.140000X0.170000X0.140000X0*%
%ADD13R,1.200000X1.200000*%
%ADD14R,0.800000X0.800000*%
%ADD15R,0.400000X0.800000*%
%ADD16R,0.800000X0.400000*%
%ADD17RoundRect,0.140000X0.170000X-0.140000X0.170000X0.140000X-0.170000X0.140000X-0.170000X-0.140000X0*%
%ADD18O,1.900000X3.050000*%
%ADD19C,1.800000*%
%ADD20O,1.700000X1.700000*%
%ADD21R,1.700000X1.700000*%
%ADD22RoundRect,0.135000X0.185000X-0.135000X0.185000X0.135000X-0.185000X0.135000X-0.185000X-0.135000X0*%
%ADD23RoundRect,0.218750X0.256250X-0.218750X0.256250X0.218750X-0.256250X0.218750X-0.256250X-0.218750X0*%
%ADD24RoundRect,0.150000X-0.150000X0.587500X-0.150000X-0.587500X0.150000X-0.587500X0.150000X0.587500X0*%
%ADD25RoundRect,0.375000X0.375000X-0.625000X0.375000X0.625000X-0.375000X0.625000X-0.375000X-0.625000X0*%
%ADD26RoundRect,0.500000X1.400000X-0.500000X1.400000X0.500000X-1.400000X0.500000X-1.400000X-0.500000X0*%
%ADD27O,1.800000X1.000000*%
%ADD28O,2.100000X1.000000*%
%ADD29RoundRect,0.150000X0.425000X-0.150000X0.425000X0.150000X-0.425000X0.150000X-0.425000X-0.150000X0*%
%ADD30RoundRect,0.075000X0.500000X-0.075000X0.500000X0.075000X-0.500000X0.075000X-0.500000X-0.075000X0*%
%ADD31C,0.650000*%
G04 APERTURE END LIST*
D10*
%TO.C,SW2*%
X5525000Y-18500000D03*
X1375000Y-18500000D03*
%TD*%
D11*
%TO.C,R6*%
X14050000Y-20410000D03*
X14050000Y-19390000D03*
%TD*%
%TO.C,R4*%
X4850000Y-27010000D03*
X4850000Y-25990000D03*
%TD*%
%TO.C,R3*%
X5800000Y-27010000D03*
X5800000Y-25990000D03*
%TD*%
%TO.C,R10*%
X13100000Y-18185000D03*
X13100000Y-17165000D03*
%TD*%
D12*
%TO.C,C1*%
X14050000Y-26180000D03*
X14050000Y-25220000D03*
%TD*%
D11*
%TO.C,R11*%
X14050000Y-18185000D03*
X14050000Y-17165000D03*
%TD*%
D13*
%TO.C,U2*%
X11200000Y-6350000D03*
X12850000Y-6350000D03*
X12850000Y-8000000D03*
X12850000Y-9650000D03*
X11200000Y-9650000D03*
X9550000Y-9650000D03*
X9550000Y-8000000D03*
X9550000Y-6350000D03*
D14*
X18200000Y-1000000D03*
X18200000Y-15000000D03*
X4200000Y-15000000D03*
X4200000Y-1000000D03*
D13*
X11200000Y-8000000D03*
D15*
X5250000Y-1000000D03*
X6100000Y-1000000D03*
X6950000Y-1000000D03*
X7800000Y-1000000D03*
X8650000Y-1000000D03*
X9500000Y-1000000D03*
X10350000Y-1000000D03*
X11200000Y-1000000D03*
X12050000Y-1000000D03*
X12900000Y-1000000D03*
X13750000Y-1000000D03*
X14600000Y-1000000D03*
X15450000Y-1000000D03*
X16300000Y-1000000D03*
X17150000Y-1000000D03*
D16*
X18200000Y-2050000D03*
X18200000Y-2900000D03*
X18200000Y-3750000D03*
X18200000Y-4600000D03*
X18200000Y-5450000D03*
X18200000Y-6300000D03*
X18200000Y-7150000D03*
X18200000Y-8000000D03*
X18200000Y-8850000D03*
X18200000Y-9700000D03*
X18200000Y-10550000D03*
X18200000Y-11400000D03*
X18200000Y-12250000D03*
X18200000Y-13100000D03*
X18200000Y-13950000D03*
D15*
X17150000Y-15000000D03*
X16300000Y-15000000D03*
X15450000Y-15000000D03*
X14600000Y-15000000D03*
X13750000Y-15000000D03*
X12900000Y-15000000D03*
X12050000Y-15000000D03*
X11200000Y-15000000D03*
X10350000Y-15000000D03*
X9500000Y-15000000D03*
X8650000Y-15000000D03*
X7800000Y-15000000D03*
X6950000Y-15000000D03*
X6100000Y-15000000D03*
X5250000Y-15000000D03*
D16*
X4200000Y-13950000D03*
X4200000Y-13100000D03*
X4200000Y-12250000D03*
X4200000Y-11400000D03*
X4200000Y-10550000D03*
X4200000Y-9700000D03*
X4200000Y-8850000D03*
X4200000Y-8000000D03*
X4200000Y-7150000D03*
X4200000Y-6300000D03*
X4200000Y-5450000D03*
X4200000Y-4600000D03*
X4200000Y-3750000D03*
X4200000Y-2900000D03*
X4200000Y-2050000D03*
%TD*%
D17*
%TO.C,C2*%
X7750000Y-17220000D03*
X7750000Y-18180000D03*
%TD*%
D18*
%TO.C,J3*%
X5700000Y-31300000D03*
X17400000Y-31300000D03*
D19*
X8050000Y-28900000D03*
X10550000Y-28900000D03*
X12550000Y-28900000D03*
X15050000Y-28900000D03*
%TD*%
D20*
%TO.C,J1*%
X21150000Y-31790000D03*
D21*
X21150000Y-29250000D03*
%TD*%
D22*
%TO.C,R7*%
X2000000Y-3190000D03*
X2000000Y-4210000D03*
%TD*%
D17*
%TO.C,C3*%
X20400000Y-2020000D03*
X20400000Y-2980000D03*
%TD*%
D11*
%TO.C,R8*%
X2000000Y-6110000D03*
X2000000Y-5090000D03*
%TD*%
D22*
%TO.C,R1*%
X8700000Y-17190000D03*
X8700000Y-18210000D03*
%TD*%
D23*
%TO.C,D2*%
X1750000Y-7262500D03*
X1750000Y-8837500D03*
%TD*%
D24*
%TO.C,Q2*%
X2500000Y-28037500D03*
X1550000Y-26162500D03*
X3450000Y-26162500D03*
%TD*%
D22*
%TO.C,R2*%
X9650000Y-17190000D03*
X9650000Y-18210000D03*
%TD*%
D10*
%TO.C,SW1*%
X5525000Y-21900000D03*
X1375000Y-21900000D03*
%TD*%
D25*
%TO.C,U1*%
X12250000Y-26200000D03*
D26*
X9950000Y-19900000D03*
D25*
X9950000Y-26200000D03*
X7650000Y-26200000D03*
%TD*%
D27*
%TO.C,P1*%
X20375000Y-17780000D03*
D28*
X16195000Y-17780000D03*
D27*
X20375000Y-26420000D03*
D28*
X16195000Y-26420000D03*
D29*
X15620000Y-25300000D03*
X15620000Y-24500000D03*
D30*
X15620000Y-23850000D03*
X15620000Y-22850000D03*
X15620000Y-21350000D03*
X15620000Y-20350000D03*
D29*
X15620000Y-19700000D03*
X15620000Y-18900000D03*
X15620000Y-18900000D03*
X15620000Y-19700000D03*
D30*
X15620000Y-20850000D03*
X15620000Y-21850000D03*
X15620000Y-22350000D03*
X15620000Y-23350000D03*
D29*
X15620000Y-24500000D03*
X15620000Y-25300000D03*
D31*
X16695000Y-19210000D03*
X16695000Y-24990000D03*
%TD*%
D17*
%TO.C,C4*%
X2000000Y-1370000D03*
X2000000Y-2330000D03*
%TD*%
D23*
%TO.C,D1*%
X1750000Y-10312500D03*
X1750000Y-11887500D03*
%TD*%
D11*
%TO.C,R5*%
X14050000Y-24360000D03*
X14050000Y-23340000D03*
%TD*%
%TO.C,R9*%
X12150000Y-18195000D03*
X12150000Y-17175000D03*
%TD*%
D24*
%TO.C,Q1*%
X2500000Y-31887500D03*
X1550000Y-30012500D03*
X3450000Y-30012500D03*
%TD*%
M02*
