%TF.GenerationSoftware,KiCad,Pcbnew,8.0.6*%
%TF.CreationDate,2024-12-05T18:18:12-05:00*%
%TF.ProjectId,wyt-dongle,7779742d-646f-46e6-976c-652e6b696361,rev?*%
%TF.SameCoordinates,Original*%
%TF.FileFunction,Legend,Top*%
%TF.FilePolarity,Positive*%
%FSLAX46Y46*%
G04 Gerber Fmt 4.6, Leading zero omitted, Abs format (unit mm)*
G04 Created by KiCad (PCBNEW 8.0.6) date 2024-12-05 18:18:12*
%MOMM*%
%LPD*%
G01*
G04 APERTURE LIST*
G04 Aperture macros list*
%AMRoundRect*
0 Rectangle with rounded corners*
0 $1 Rounding radius*
0 $2 $3 $4 $5 $6 $7 $8 $9 X,Y pos of 4 corners*
0 Add a 4 corners polygon primitive as box body*
4,1,4,$2,$3,$4,$5,$6,$7,$8,$9,$2,$3,0*
0 Add four circle primitives for the rounded corners*
1,1,$1+$1,$2,$3*
1,1,$1+$1,$4,$5*
1,1,$1+$1,$6,$7*
1,1,$1+$1,$8,$9*
0 Add four rect primitives between the rounded corners*
20,1,$1+$1,$2,$3,$4,$5,0*
20,1,$1+$1,$4,$5,$6,$7,0*
20,1,$1+$1,$6,$7,$8,$9,0*
20,1,$1+$1,$8,$9,$2,$3,0*%
G04 Aperture macros list end*
%ADD10C,0.150000*%
%ADD11C,0.100000*%
%ADD12C,0.120000*%
%ADD13C,0.200000*%
%ADD14R,1.350000X1.800000*%
%ADD15RoundRect,0.135000X-0.185000X0.135000X-0.185000X-0.135000X0.185000X-0.135000X0.185000X0.135000X0*%
%ADD16RoundRect,0.140000X-0.170000X0.140000X-0.170000X-0.140000X0.170000X-0.140000X0.170000X0.140000X0*%
%ADD17R,1.200000X1.200000*%
%ADD18R,0.800000X0.800000*%
%ADD19R,0.400000X0.800000*%
%ADD20R,0.800000X0.400000*%
%ADD21RoundRect,0.140000X0.170000X-0.140000X0.170000X0.140000X-0.170000X0.140000X-0.170000X-0.140000X0*%
%ADD22O,1.900000X3.050000*%
%ADD23C,1.800000*%
%ADD24O,1.700000X1.700000*%
%ADD25R,1.700000X1.700000*%
%ADD26RoundRect,0.135000X0.185000X-0.135000X0.185000X0.135000X-0.185000X0.135000X-0.185000X-0.135000X0*%
%ADD27RoundRect,0.218750X0.256250X-0.218750X0.256250X0.218750X-0.256250X0.218750X-0.256250X-0.218750X0*%
%ADD28RoundRect,0.150000X-0.150000X0.587500X-0.150000X-0.587500X0.150000X-0.587500X0.150000X0.587500X0*%
%ADD29RoundRect,0.375000X0.375000X-0.625000X0.375000X0.625000X-0.375000X0.625000X-0.375000X-0.625000X0*%
%ADD30RoundRect,0.500000X1.400000X-0.500000X1.400000X0.500000X-1.400000X0.500000X-1.400000X-0.500000X0*%
%ADD31O,1.800000X1.000000*%
%ADD32O,2.100000X1.000000*%
%ADD33RoundRect,0.150000X0.425000X-0.150000X0.425000X0.150000X-0.425000X0.150000X-0.425000X-0.150000X0*%
%ADD34RoundRect,0.075000X0.500000X-0.075000X0.500000X0.075000X-0.500000X0.075000X-0.500000X-0.075000X0*%
%ADD35C,0.650000*%
G04 APERTURE END LIST*
D10*
X2127255Y-24882057D02*
X1827255Y-24453485D01*
X1612969Y-24882057D02*
X1612969Y-23982057D01*
X1612969Y-23982057D02*
X1955826Y-23982057D01*
X1955826Y-23982057D02*
X2041541Y-24024914D01*
X2041541Y-24024914D02*
X2084398Y-24067771D01*
X2084398Y-24067771D02*
X2127255Y-24153485D01*
X2127255Y-24153485D02*
X2127255Y-24282057D01*
X2127255Y-24282057D02*
X2084398Y-24367771D01*
X2084398Y-24367771D02*
X2041541Y-24410628D01*
X2041541Y-24410628D02*
X1955826Y-24453485D01*
X1955826Y-24453485D02*
X1612969Y-24453485D01*
X2512969Y-24410628D02*
X2812969Y-24410628D01*
X2941541Y-24882057D02*
X2512969Y-24882057D01*
X2512969Y-24882057D02*
X2512969Y-23982057D01*
X2512969Y-23982057D02*
X2941541Y-23982057D01*
X3284398Y-24839200D02*
X3412970Y-24882057D01*
X3412970Y-24882057D02*
X3627255Y-24882057D01*
X3627255Y-24882057D02*
X3712970Y-24839200D01*
X3712970Y-24839200D02*
X3755827Y-24796342D01*
X3755827Y-24796342D02*
X3798684Y-24710628D01*
X3798684Y-24710628D02*
X3798684Y-24624914D01*
X3798684Y-24624914D02*
X3755827Y-24539200D01*
X3755827Y-24539200D02*
X3712970Y-24496342D01*
X3712970Y-24496342D02*
X3627255Y-24453485D01*
X3627255Y-24453485D02*
X3455827Y-24410628D01*
X3455827Y-24410628D02*
X3370112Y-24367771D01*
X3370112Y-24367771D02*
X3327255Y-24324914D01*
X3327255Y-24324914D02*
X3284398Y-24239200D01*
X3284398Y-24239200D02*
X3284398Y-24153485D01*
X3284398Y-24153485D02*
X3327255Y-24067771D01*
X3327255Y-24067771D02*
X3370112Y-24024914D01*
X3370112Y-24024914D02*
X3455827Y-23982057D01*
X3455827Y-23982057D02*
X3670112Y-23982057D01*
X3670112Y-23982057D02*
X3798684Y-24024914D01*
X4184398Y-24410628D02*
X4484398Y-24410628D01*
X4612970Y-24882057D02*
X4184398Y-24882057D01*
X4184398Y-24882057D02*
X4184398Y-23982057D01*
X4184398Y-23982057D02*
X4612970Y-23982057D01*
X4870113Y-23982057D02*
X5384399Y-23982057D01*
X5127256Y-24882057D02*
X5127256Y-23982057D01*
X2160628Y-16087030D02*
X2203485Y-15958458D01*
X2203485Y-15958458D02*
X2246342Y-15915601D01*
X2246342Y-15915601D02*
X2332057Y-15872744D01*
X2332057Y-15872744D02*
X2460628Y-15872744D01*
X2460628Y-15872744D02*
X2546342Y-15915601D01*
X2546342Y-15915601D02*
X2589200Y-15958458D01*
X2589200Y-15958458D02*
X2632057Y-16044173D01*
X2632057Y-16044173D02*
X2632057Y-16387030D01*
X2632057Y-16387030D02*
X1732057Y-16387030D01*
X1732057Y-16387030D02*
X1732057Y-16087030D01*
X1732057Y-16087030D02*
X1774914Y-16001316D01*
X1774914Y-16001316D02*
X1817771Y-15958458D01*
X1817771Y-15958458D02*
X1903485Y-15915601D01*
X1903485Y-15915601D02*
X1989200Y-15915601D01*
X1989200Y-15915601D02*
X2074914Y-15958458D01*
X2074914Y-15958458D02*
X2117771Y-16001316D01*
X2117771Y-16001316D02*
X2160628Y-16087030D01*
X2160628Y-16087030D02*
X2160628Y-16387030D01*
X1732057Y-15315601D02*
X1732057Y-15144173D01*
X1732057Y-15144173D02*
X1774914Y-15058458D01*
X1774914Y-15058458D02*
X1860628Y-14972744D01*
X1860628Y-14972744D02*
X2032057Y-14929887D01*
X2032057Y-14929887D02*
X2332057Y-14929887D01*
X2332057Y-14929887D02*
X2503485Y-14972744D01*
X2503485Y-14972744D02*
X2589200Y-15058458D01*
X2589200Y-15058458D02*
X2632057Y-15144173D01*
X2632057Y-15144173D02*
X2632057Y-15315601D01*
X2632057Y-15315601D02*
X2589200Y-15401316D01*
X2589200Y-15401316D02*
X2503485Y-15487030D01*
X2503485Y-15487030D02*
X2332057Y-15529887D01*
X2332057Y-15529887D02*
X2032057Y-15529887D01*
X2032057Y-15529887D02*
X1860628Y-15487030D01*
X1860628Y-15487030D02*
X1774914Y-15401316D01*
X1774914Y-15401316D02*
X1732057Y-15315601D01*
X1732057Y-14372744D02*
X1732057Y-14201316D01*
X1732057Y-14201316D02*
X1774914Y-14115601D01*
X1774914Y-14115601D02*
X1860628Y-14029887D01*
X1860628Y-14029887D02*
X2032057Y-13987030D01*
X2032057Y-13987030D02*
X2332057Y-13987030D01*
X2332057Y-13987030D02*
X2503485Y-14029887D01*
X2503485Y-14029887D02*
X2589200Y-14115601D01*
X2589200Y-14115601D02*
X2632057Y-14201316D01*
X2632057Y-14201316D02*
X2632057Y-14372744D01*
X2632057Y-14372744D02*
X2589200Y-14458459D01*
X2589200Y-14458459D02*
X2503485Y-14544173D01*
X2503485Y-14544173D02*
X2332057Y-14587030D01*
X2332057Y-14587030D02*
X2032057Y-14587030D01*
X2032057Y-14587030D02*
X1860628Y-14544173D01*
X1860628Y-14544173D02*
X1774914Y-14458459D01*
X1774914Y-14458459D02*
X1732057Y-14372744D01*
X1732057Y-13729887D02*
X1732057Y-13215602D01*
X2632057Y-13472744D02*
X1732057Y-13472744D01*
D11*
%TO.C,SW2*%
X5950000Y-20050000D02*
X950000Y-20050000D01*
X5950000Y-19500000D02*
X5950000Y-20050000D01*
X5950000Y-16950000D02*
X5950000Y-17500000D01*
X950000Y-20050000D02*
X950000Y-19500000D01*
X950000Y-17500000D02*
X950000Y-16950000D01*
X950000Y-16950000D02*
X5950000Y-16950000D01*
D12*
%TO.C,R6*%
X14430000Y-19746359D02*
X14430000Y-20053641D01*
X13670000Y-19746359D02*
X13670000Y-20053641D01*
%TO.C,R4*%
X5230000Y-26346359D02*
X5230000Y-26653641D01*
X4470000Y-26346359D02*
X4470000Y-26653641D01*
%TO.C,R3*%
X6180000Y-26346359D02*
X6180000Y-26653641D01*
X5420000Y-26346359D02*
X5420000Y-26653641D01*
%TO.C,R10*%
X13480000Y-17521359D02*
X13480000Y-17828641D01*
X12720000Y-17521359D02*
X12720000Y-17828641D01*
%TO.C,C1*%
X14410000Y-25592164D02*
X14410000Y-25807836D01*
X13690000Y-25592164D02*
X13690000Y-25807836D01*
%TO.C,R11*%
X14430000Y-17521359D02*
X14430000Y-17828641D01*
X13670000Y-17521359D02*
X13670000Y-17828641D01*
D11*
%TO.C,U2*%
X3000000Y-2050000D02*
G75*
G02*
X2900000Y-2050000I-50000J0D01*
G01*
X2900000Y-2050000D02*
G75*
G02*
X3000000Y-2050000I50000J0D01*
G01*
D13*
X18900000Y4775000D02*
X18900000Y0D01*
X3500000Y0D02*
X3500000Y4775000D01*
X3500000Y4775000D02*
X18900000Y4775000D01*
D11*
X3000000Y-2050000D02*
X3000000Y-2050000D01*
X2900000Y-2050000D02*
X2900000Y-2050000D01*
D12*
%TO.C,C2*%
X8110000Y-17807836D02*
X8110000Y-17592164D01*
X7390000Y-17807836D02*
X7390000Y-17592164D01*
%TO.C,J1*%
X22480000Y-30520000D02*
X22480000Y-33120000D01*
X19820000Y-33120000D02*
X22480000Y-33120000D01*
X19820000Y-30520000D02*
X22480000Y-30520000D01*
X19820000Y-30520000D02*
X19820000Y-33120000D01*
X19820000Y-29250000D02*
X19820000Y-27920000D01*
X19820000Y-27920000D02*
X21150000Y-27920000D01*
%TO.C,R7*%
X2380000Y-3853641D02*
X2380000Y-3546359D01*
X1620000Y-3853641D02*
X1620000Y-3546359D01*
%TO.C,C3*%
X20760000Y-2607836D02*
X20760000Y-2392164D01*
X20040000Y-2607836D02*
X20040000Y-2392164D01*
%TO.C,R8*%
X2380000Y-5446359D02*
X2380000Y-5753641D01*
X1620000Y-5446359D02*
X1620000Y-5753641D01*
%TO.C,R1*%
X9080000Y-17853641D02*
X9080000Y-17546359D01*
X8320000Y-17853641D02*
X8320000Y-17546359D01*
%TO.C,D2*%
X2485000Y-9535000D02*
X2485000Y-7250000D01*
X1015000Y-9535000D02*
X2485000Y-9535000D01*
X1015000Y-7250000D02*
X1015000Y-9535000D01*
%TO.C,Q2*%
X4340000Y-26177500D02*
X4010000Y-25937500D01*
X4340000Y-25697500D01*
X4340000Y-26177500D01*
G36*
X4340000Y-26177500D02*
G01*
X4010000Y-25937500D01*
X4340000Y-25697500D01*
X4340000Y-26177500D01*
G37*
X4060000Y-27100000D02*
X4060000Y-27750000D01*
X4060000Y-27100000D02*
X4060000Y-26450000D01*
X940000Y-27100000D02*
X940000Y-27750000D01*
X940000Y-27100000D02*
X940000Y-26450000D01*
%TO.C,R2*%
X10030000Y-17853641D02*
X10030000Y-17546359D01*
X9270000Y-17853641D02*
X9270000Y-17546359D01*
D11*
%TO.C,SW1*%
X5950000Y-23450000D02*
X950000Y-23450000D01*
X5950000Y-22900000D02*
X5950000Y-23450000D01*
X5950000Y-20350000D02*
X5950000Y-20900000D01*
X950000Y-23450000D02*
X950000Y-22900000D01*
X950000Y-20900000D02*
X950000Y-20350000D01*
X950000Y-20350000D02*
X5950000Y-20350000D01*
D12*
%TO.C,U1*%
X6640000Y-26180000D02*
X6310000Y-26420000D01*
X6310000Y-25940000D01*
X6640000Y-26180000D01*
G36*
X6640000Y-26180000D02*
G01*
X6310000Y-26420000D01*
X6310000Y-25940000D01*
X6640000Y-26180000D01*
G37*
X13360000Y-24900000D02*
X13360000Y-21140000D01*
X13360000Y-21140000D02*
X12100000Y-21140000D01*
X6540000Y-24900000D02*
X6540000Y-21140000D01*
X6540000Y-21140000D02*
X7800000Y-21140000D01*
%TO.C,P1*%
X19200000Y-26770000D02*
X17500000Y-26770000D01*
X19200000Y-17430000D02*
X17500000Y-17430000D01*
%TO.C,C4*%
X2360000Y-1957836D02*
X2360000Y-1742164D01*
X1640000Y-1957836D02*
X1640000Y-1742164D01*
%TO.C,D1*%
X2485000Y-12585000D02*
X2485000Y-10300000D01*
X1015000Y-12585000D02*
X2485000Y-12585000D01*
X1015000Y-10300000D02*
X1015000Y-12585000D01*
%TO.C,R5*%
X14430000Y-23696359D02*
X14430000Y-24003641D01*
X13670000Y-23696359D02*
X13670000Y-24003641D01*
%TO.C,R9*%
X12530000Y-17531359D02*
X12530000Y-17838641D01*
X11770000Y-17531359D02*
X11770000Y-17838641D01*
%TO.C,Q1*%
X4340000Y-30027500D02*
X4010000Y-29787500D01*
X4340000Y-29547500D01*
X4340000Y-30027500D01*
G36*
X4340000Y-30027500D02*
G01*
X4010000Y-29787500D01*
X4340000Y-29547500D01*
X4340000Y-30027500D01*
G37*
X4060000Y-30950000D02*
X4060000Y-31600000D01*
X4060000Y-30950000D02*
X4060000Y-30300000D01*
X940000Y-30950000D02*
X940000Y-31600000D01*
X940000Y-30950000D02*
X940000Y-30300000D01*
%TD*%
%LPC*%
D14*
%TO.C,SW2*%
X5525000Y-18500000D03*
X1375000Y-18500000D03*
%TD*%
D15*
%TO.C,R6*%
X14050000Y-20410000D03*
X14050000Y-19390000D03*
%TD*%
%TO.C,R4*%
X4850000Y-27010000D03*
X4850000Y-25990000D03*
%TD*%
%TO.C,R3*%
X5800000Y-27010000D03*
X5800000Y-25990000D03*
%TD*%
%TO.C,R10*%
X13100000Y-18185000D03*
X13100000Y-17165000D03*
%TD*%
D16*
%TO.C,C1*%
X14050000Y-26180000D03*
X14050000Y-25220000D03*
%TD*%
D15*
%TO.C,R11*%
X14050000Y-18185000D03*
X14050000Y-17165000D03*
%TD*%
D17*
%TO.C,U2*%
X11200000Y-6350000D03*
X12850000Y-6350000D03*
X12850000Y-8000000D03*
X12850000Y-9650000D03*
X11200000Y-9650000D03*
X9550000Y-9650000D03*
X9550000Y-8000000D03*
X9550000Y-6350000D03*
D18*
X18200000Y-1000000D03*
X18200000Y-15000000D03*
X4200000Y-15000000D03*
X4200000Y-1000000D03*
D17*
X11200000Y-8000000D03*
D19*
X5250000Y-1000000D03*
X6100000Y-1000000D03*
X6950000Y-1000000D03*
X7800000Y-1000000D03*
X8650000Y-1000000D03*
X9500000Y-1000000D03*
X10350000Y-1000000D03*
X11200000Y-1000000D03*
X12050000Y-1000000D03*
X12900000Y-1000000D03*
X13750000Y-1000000D03*
X14600000Y-1000000D03*
X15450000Y-1000000D03*
X16300000Y-1000000D03*
X17150000Y-1000000D03*
D20*
X18200000Y-2050000D03*
X18200000Y-2900000D03*
X18200000Y-3750000D03*
X18200000Y-4600000D03*
X18200000Y-5450000D03*
X18200000Y-6300000D03*
X18200000Y-7150000D03*
X18200000Y-8000000D03*
X18200000Y-8850000D03*
X18200000Y-9700000D03*
X18200000Y-10550000D03*
X18200000Y-11400000D03*
X18200000Y-12250000D03*
X18200000Y-13100000D03*
X18200000Y-13950000D03*
D19*
X17150000Y-15000000D03*
X16300000Y-15000000D03*
X15450000Y-15000000D03*
X14600000Y-15000000D03*
X13750000Y-15000000D03*
X12900000Y-15000000D03*
X12050000Y-15000000D03*
X11200000Y-15000000D03*
X10350000Y-15000000D03*
X9500000Y-15000000D03*
X8650000Y-15000000D03*
X7800000Y-15000000D03*
X6950000Y-15000000D03*
X6100000Y-15000000D03*
X5250000Y-15000000D03*
D20*
X4200000Y-13950000D03*
X4200000Y-13100000D03*
X4200000Y-12250000D03*
X4200000Y-11400000D03*
X4200000Y-10550000D03*
X4200000Y-9700000D03*
X4200000Y-8850000D03*
X4200000Y-8000000D03*
X4200000Y-7150000D03*
X4200000Y-6300000D03*
X4200000Y-5450000D03*
X4200000Y-4600000D03*
X4200000Y-3750000D03*
X4200000Y-2900000D03*
X4200000Y-2050000D03*
%TD*%
D21*
%TO.C,C2*%
X7750000Y-17220000D03*
X7750000Y-18180000D03*
%TD*%
D22*
%TO.C,J3*%
X5700000Y-31300000D03*
X17400000Y-31300000D03*
D23*
X8050000Y-28900000D03*
X10550000Y-28900000D03*
X12550000Y-28900000D03*
X15050000Y-28900000D03*
%TD*%
D24*
%TO.C,J1*%
X21150000Y-31790000D03*
D25*
X21150000Y-29250000D03*
%TD*%
D26*
%TO.C,R7*%
X2000000Y-3190000D03*
X2000000Y-4210000D03*
%TD*%
D21*
%TO.C,C3*%
X20400000Y-2020000D03*
X20400000Y-2980000D03*
%TD*%
D15*
%TO.C,R8*%
X2000000Y-6110000D03*
X2000000Y-5090000D03*
%TD*%
D26*
%TO.C,R1*%
X8700000Y-17190000D03*
X8700000Y-18210000D03*
%TD*%
D27*
%TO.C,D2*%
X1750000Y-7262500D03*
X1750000Y-8837500D03*
%TD*%
D28*
%TO.C,Q2*%
X2500000Y-28037500D03*
X1550000Y-26162500D03*
X3450000Y-26162500D03*
%TD*%
D26*
%TO.C,R2*%
X9650000Y-17190000D03*
X9650000Y-18210000D03*
%TD*%
D14*
%TO.C,SW1*%
X5525000Y-21900000D03*
X1375000Y-21900000D03*
%TD*%
D29*
%TO.C,U1*%
X12250000Y-26200000D03*
D30*
X9950000Y-19900000D03*
D29*
X9950000Y-26200000D03*
X7650000Y-26200000D03*
%TD*%
D31*
%TO.C,P1*%
X20375000Y-17780000D03*
D32*
X16195000Y-17780000D03*
D31*
X20375000Y-26420000D03*
D32*
X16195000Y-26420000D03*
D33*
X15620000Y-25300000D03*
X15620000Y-24500000D03*
D34*
X15620000Y-23850000D03*
X15620000Y-22850000D03*
X15620000Y-21350000D03*
X15620000Y-20350000D03*
D33*
X15620000Y-19700000D03*
X15620000Y-18900000D03*
X15620000Y-18900000D03*
X15620000Y-19700000D03*
D34*
X15620000Y-20850000D03*
X15620000Y-21850000D03*
X15620000Y-22350000D03*
X15620000Y-23350000D03*
D33*
X15620000Y-24500000D03*
X15620000Y-25300000D03*
D35*
X16695000Y-19210000D03*
X16695000Y-24990000D03*
%TD*%
D21*
%TO.C,C4*%
X2000000Y-1370000D03*
X2000000Y-2330000D03*
%TD*%
D27*
%TO.C,D1*%
X1750000Y-10312500D03*
X1750000Y-11887500D03*
%TD*%
D15*
%TO.C,R5*%
X14050000Y-24360000D03*
X14050000Y-23340000D03*
%TD*%
%TO.C,R9*%
X12150000Y-18195000D03*
X12150000Y-17175000D03*
%TD*%
D28*
%TO.C,Q1*%
X2500000Y-31887500D03*
X1550000Y-30012500D03*
X3450000Y-30012500D03*
%TD*%
%LPD*%
M02*
