%TF.GenerationSoftware,KiCad,Pcbnew,8.0.6*%
%TF.CreationDate,2024-12-05T18:18:12-05:00*%
%TF.ProjectId,wyt-dongle,7779742d-646f-46e6-976c-652e6b696361,rev?*%
%TF.SameCoordinates,Original*%
%TF.FileFunction,Legend,Bot*%
%TF.FilePolarity,Positive*%
%FSLAX46Y46*%
G04 Gerber Fmt 4.6, Leading zero omitted, Abs format (unit mm)*
G04 Created by KiCad (PCBNEW 8.0.6) date 2024-12-05 18:18:12*
%MOMM*%
%LPD*%
G01*
G04 APERTURE LIST*
%ADD10C,0.100000*%
%ADD11C,0.200000*%
%ADD12O,1.900000X3.050000*%
%ADD13C,1.800000*%
%ADD14O,1.700000X1.700000*%
%ADD15R,1.700000X1.700000*%
%ADD16O,1.800000X1.000000*%
%ADD17O,2.100000X1.000000*%
%ADD18C,0.650000*%
%ADD19R,3.000000X1.750000*%
G04 APERTURE END LIST*
D10*
X9000000Y-2500000D02*
X14000000Y-2500000D01*
X14000000Y-7500000D01*
X9000000Y-7500000D01*
X9000000Y-2500000D01*
G36*
X9000000Y-2500000D02*
G01*
X14000000Y-2500000D01*
X14000000Y-7500000D01*
X9000000Y-7500000D01*
X9000000Y-2500000D01*
G37*
D11*
X15032780Y-27673183D02*
X15032780Y-27101755D01*
X14032780Y-27387469D02*
X15032780Y-27387469D01*
X15032780Y-26863659D02*
X14032780Y-26196993D01*
X15032780Y-26196993D02*
X14032780Y-26863659D01*
X14032780Y-25292231D02*
X14032780Y-25863659D01*
X14032780Y-25577945D02*
X15032780Y-25577945D01*
X15032780Y-25577945D02*
X14889923Y-25673183D01*
X14889923Y-25673183D02*
X14794685Y-25768421D01*
X14794685Y-25768421D02*
X14747066Y-25863659D01*
X12032780Y-26958898D02*
X12508971Y-27292231D01*
X12032780Y-27530326D02*
X13032780Y-27530326D01*
X13032780Y-27530326D02*
X13032780Y-27149374D01*
X13032780Y-27149374D02*
X12985161Y-27054136D01*
X12985161Y-27054136D02*
X12937542Y-27006517D01*
X12937542Y-27006517D02*
X12842304Y-26958898D01*
X12842304Y-26958898D02*
X12699447Y-26958898D01*
X12699447Y-26958898D02*
X12604209Y-27006517D01*
X12604209Y-27006517D02*
X12556590Y-27054136D01*
X12556590Y-27054136D02*
X12508971Y-27149374D01*
X12508971Y-27149374D02*
X12508971Y-27530326D01*
X13032780Y-26625564D02*
X12032780Y-25958898D01*
X13032780Y-25958898D02*
X12032780Y-26625564D01*
X12032780Y-25054136D02*
X12032780Y-25625564D01*
X12032780Y-25339850D02*
X13032780Y-25339850D01*
X13032780Y-25339850D02*
X12889923Y-25435088D01*
X12889923Y-25435088D02*
X12794685Y-25530326D01*
X12794685Y-25530326D02*
X12747066Y-25625564D01*
X10985161Y-27006517D02*
X11032780Y-27101755D01*
X11032780Y-27101755D02*
X11032780Y-27244612D01*
X11032780Y-27244612D02*
X10985161Y-27387469D01*
X10985161Y-27387469D02*
X10889923Y-27482707D01*
X10889923Y-27482707D02*
X10794685Y-27530326D01*
X10794685Y-27530326D02*
X10604209Y-27577945D01*
X10604209Y-27577945D02*
X10461352Y-27577945D01*
X10461352Y-27577945D02*
X10270876Y-27530326D01*
X10270876Y-27530326D02*
X10175638Y-27482707D01*
X10175638Y-27482707D02*
X10080400Y-27387469D01*
X10080400Y-27387469D02*
X10032780Y-27244612D01*
X10032780Y-27244612D02*
X10032780Y-27149374D01*
X10032780Y-27149374D02*
X10080400Y-27006517D01*
X10080400Y-27006517D02*
X10128019Y-26958898D01*
X10128019Y-26958898D02*
X10461352Y-26958898D01*
X10461352Y-26958898D02*
X10461352Y-27149374D01*
X10032780Y-26530326D02*
X11032780Y-26530326D01*
X11032780Y-26530326D02*
X10032780Y-25958898D01*
X10032780Y-25958898D02*
X11032780Y-25958898D01*
X10032780Y-25482707D02*
X11032780Y-25482707D01*
X11032780Y-25482707D02*
X11032780Y-25244612D01*
X11032780Y-25244612D02*
X10985161Y-25101755D01*
X10985161Y-25101755D02*
X10889923Y-25006517D01*
X10889923Y-25006517D02*
X10794685Y-24958898D01*
X10794685Y-24958898D02*
X10604209Y-24911279D01*
X10604209Y-24911279D02*
X10461352Y-24911279D01*
X10461352Y-24911279D02*
X10270876Y-24958898D01*
X10270876Y-24958898D02*
X10175638Y-25006517D01*
X10175638Y-25006517D02*
X10080400Y-25101755D01*
X10080400Y-25101755D02*
X10032780Y-25244612D01*
X10032780Y-25244612D02*
X10032780Y-25482707D01*
X8013733Y-27530326D02*
X8013733Y-26768422D01*
X7632780Y-27149374D02*
X8394685Y-27149374D01*
X8632780Y-25816041D02*
X8632780Y-26292231D01*
X8632780Y-26292231D02*
X8156590Y-26339850D01*
X8156590Y-26339850D02*
X8204209Y-26292231D01*
X8204209Y-26292231D02*
X8251828Y-26196993D01*
X8251828Y-26196993D02*
X8251828Y-25958898D01*
X8251828Y-25958898D02*
X8204209Y-25863660D01*
X8204209Y-25863660D02*
X8156590Y-25816041D01*
X8156590Y-25816041D02*
X8061352Y-25768422D01*
X8061352Y-25768422D02*
X7823257Y-25768422D01*
X7823257Y-25768422D02*
X7728019Y-25816041D01*
X7728019Y-25816041D02*
X7680400Y-25863660D01*
X7680400Y-25863660D02*
X7632780Y-25958898D01*
X7632780Y-25958898D02*
X7632780Y-26196993D01*
X7632780Y-26196993D02*
X7680400Y-26292231D01*
X7680400Y-26292231D02*
X7728019Y-26339850D01*
X8632780Y-25482707D02*
X7632780Y-25149374D01*
X7632780Y-25149374D02*
X8632780Y-24816041D01*
X19535537Y-29850886D02*
X19636552Y-29884558D01*
X19636552Y-29884558D02*
X19737568Y-29985573D01*
X19737568Y-29985573D02*
X19804911Y-30120260D01*
X19804911Y-30120260D02*
X19804911Y-30254947D01*
X19804911Y-30254947D02*
X19771239Y-30355963D01*
X19771239Y-30355963D02*
X19670224Y-30524321D01*
X19670224Y-30524321D02*
X19569209Y-30625337D01*
X19569209Y-30625337D02*
X19400850Y-30726352D01*
X19400850Y-30726352D02*
X19299835Y-30760024D01*
X19299835Y-30760024D02*
X19165148Y-30760024D01*
X19165148Y-30760024D02*
X19030461Y-30692680D01*
X19030461Y-30692680D02*
X18963117Y-30625337D01*
X18963117Y-30625337D02*
X18895774Y-30490650D01*
X18895774Y-30490650D02*
X18895774Y-30423306D01*
X18895774Y-30423306D02*
X19131476Y-30187604D01*
X19131476Y-30187604D02*
X19266163Y-30322291D01*
X18525385Y-30187604D02*
X19232491Y-29480497D01*
X19232491Y-29480497D02*
X18121324Y-29783543D01*
X18121324Y-29783543D02*
X18828430Y-29076436D01*
X17784606Y-29446825D02*
X18491713Y-28739719D01*
X18491713Y-28739719D02*
X18323354Y-28571360D01*
X18323354Y-28571360D02*
X18188667Y-28504016D01*
X18188667Y-28504016D02*
X18053980Y-28504016D01*
X18053980Y-28504016D02*
X17952965Y-28537688D01*
X17952965Y-28537688D02*
X17784606Y-28638703D01*
X17784606Y-28638703D02*
X17683591Y-28739719D01*
X17683591Y-28739719D02*
X17582576Y-28908077D01*
X17582576Y-28908077D02*
X17548904Y-29009093D01*
X17548904Y-29009093D02*
X17548904Y-29143780D01*
X17548904Y-29143780D02*
X17616247Y-29278467D01*
X17616247Y-29278467D02*
X17784606Y-29446825D01*
X19232491Y-28544711D02*
X19939598Y-27837604D01*
X18491713Y-27803933D02*
X19064133Y-27702917D01*
X18895774Y-28207994D02*
X19602881Y-27500887D01*
X19602881Y-27500887D02*
X19333507Y-27231513D01*
X19333507Y-27231513D02*
X19232492Y-27197841D01*
X19232492Y-27197841D02*
X19165148Y-27197841D01*
X19165148Y-27197841D02*
X19064133Y-27231513D01*
X19064133Y-27231513D02*
X18963118Y-27332528D01*
X18963118Y-27332528D02*
X18929446Y-27433543D01*
X18929446Y-27433543D02*
X18929446Y-27500887D01*
X18929446Y-27500887D02*
X18963118Y-27601902D01*
X18963118Y-27601902D02*
X19232492Y-27871276D01*
X18675337Y-11298134D02*
X18136589Y-11836882D01*
X18675337Y-11836882D02*
X18136589Y-11298134D01*
X17025421Y-12072584D02*
X17362139Y-11735866D01*
X17362139Y-11735866D02*
X17732528Y-12038912D01*
X17732528Y-12038912D02*
X17665184Y-12038912D01*
X17665184Y-12038912D02*
X17564169Y-12072584D01*
X17564169Y-12072584D02*
X17395810Y-12240943D01*
X17395810Y-12240943D02*
X17362139Y-12341958D01*
X17362139Y-12341958D02*
X17362139Y-12409301D01*
X17362139Y-12409301D02*
X17395810Y-12510317D01*
X17395810Y-12510317D02*
X17564169Y-12678675D01*
X17564169Y-12678675D02*
X17665184Y-12712347D01*
X17665184Y-12712347D02*
X17732528Y-12712347D01*
X17732528Y-12712347D02*
X17833543Y-12678675D01*
X17833543Y-12678675D02*
X18001902Y-12510317D01*
X18001902Y-12510317D02*
X18035574Y-12409301D01*
X18035574Y-12409301D02*
X18035574Y-12341958D01*
X16789719Y-12308286D02*
X17261123Y-13251095D01*
X17261123Y-13251095D02*
X16318314Y-12779691D01*
X18675337Y-8798134D02*
X18136589Y-9336882D01*
X18675337Y-9336882D02*
X18136589Y-8798134D01*
X17429482Y-9168523D02*
X16991749Y-9606255D01*
X16991749Y-9606255D02*
X17496826Y-9639927D01*
X17496826Y-9639927D02*
X17395810Y-9740943D01*
X17395810Y-9740943D02*
X17362139Y-9841958D01*
X17362139Y-9841958D02*
X17362139Y-9909301D01*
X17362139Y-9909301D02*
X17395810Y-10010317D01*
X17395810Y-10010317D02*
X17564169Y-10178675D01*
X17564169Y-10178675D02*
X17665184Y-10212347D01*
X17665184Y-10212347D02*
X17732528Y-10212347D01*
X17732528Y-10212347D02*
X17833543Y-10178675D01*
X17833543Y-10178675D02*
X18035574Y-9976645D01*
X18035574Y-9976645D02*
X18069245Y-9875630D01*
X18069245Y-9875630D02*
X18069245Y-9808286D01*
X17328467Y-10549065D02*
X17328467Y-10616408D01*
X17328467Y-10616408D02*
X17395810Y-10616408D01*
X17395810Y-10616408D02*
X17395810Y-10549065D01*
X17395810Y-10549065D02*
X17328467Y-10549065D01*
X17328467Y-10549065D02*
X17395810Y-10616408D01*
X16419330Y-10178675D02*
X15981597Y-10616408D01*
X15981597Y-10616408D02*
X16486673Y-10650079D01*
X16486673Y-10650079D02*
X16385658Y-10751095D01*
X16385658Y-10751095D02*
X16351986Y-10852110D01*
X16351986Y-10852110D02*
X16351986Y-10919454D01*
X16351986Y-10919454D02*
X16385658Y-11020469D01*
X16385658Y-11020469D02*
X16554017Y-11188828D01*
X16554017Y-11188828D02*
X16655032Y-11222499D01*
X16655032Y-11222499D02*
X16722376Y-11222499D01*
X16722376Y-11222499D02*
X16823391Y-11188828D01*
X16823391Y-11188828D02*
X17025421Y-10986797D01*
X17025421Y-10986797D02*
X17059093Y-10885782D01*
X17059093Y-10885782D02*
X17059093Y-10818438D01*
X15779567Y-10818438D02*
X16250971Y-11761247D01*
X16250971Y-11761247D02*
X15308162Y-11289843D01*
X18338619Y-5659386D02*
X17934558Y-6063447D01*
X18843695Y-6568523D02*
X18136589Y-5861416D01*
X17766199Y-6231806D02*
X18001902Y-7410317D01*
X17294795Y-6703210D02*
X18473306Y-6938912D01*
X16890734Y-7107271D02*
X16823390Y-7174615D01*
X16823390Y-7174615D02*
X16789718Y-7275630D01*
X16789718Y-7275630D02*
X16789718Y-7342973D01*
X16789718Y-7342973D02*
X16823390Y-7443989D01*
X16823390Y-7443989D02*
X16924405Y-7612347D01*
X16924405Y-7612347D02*
X17092764Y-7780706D01*
X17092764Y-7780706D02*
X17261123Y-7881721D01*
X17261123Y-7881721D02*
X17362138Y-7915393D01*
X17362138Y-7915393D02*
X17429482Y-7915393D01*
X17429482Y-7915393D02*
X17530497Y-7881721D01*
X17530497Y-7881721D02*
X17597840Y-7814378D01*
X17597840Y-7814378D02*
X17631512Y-7713363D01*
X17631512Y-7713363D02*
X17631512Y-7646019D01*
X17631512Y-7646019D02*
X17597840Y-7545004D01*
X17597840Y-7545004D02*
X17496825Y-7376645D01*
X17496825Y-7376645D02*
X17328466Y-7208286D01*
X17328466Y-7208286D02*
X17160108Y-7107271D01*
X17160108Y-7107271D02*
X17059092Y-7073599D01*
X17059092Y-7073599D02*
X16991749Y-7073599D01*
X16991749Y-7073599D02*
X16890734Y-7107271D01*
X18540650Y-4371569D02*
X18439634Y-3799149D01*
X18944711Y-3967508D02*
X18237604Y-3260401D01*
X18237604Y-3260401D02*
X17968230Y-3529775D01*
X17968230Y-3529775D02*
X17934558Y-3630790D01*
X17934558Y-3630790D02*
X17934558Y-3698134D01*
X17934558Y-3698134D02*
X17968230Y-3799149D01*
X17968230Y-3799149D02*
X18069245Y-3900164D01*
X18069245Y-3900164D02*
X18170260Y-3933836D01*
X18170260Y-3933836D02*
X18237604Y-3933836D01*
X18237604Y-3933836D02*
X18338619Y-3900164D01*
X18338619Y-3900164D02*
X18607993Y-3630790D01*
X17597841Y-3900164D02*
X17833543Y-5078675D01*
X17126436Y-4371569D02*
X18304947Y-4607271D01*
X16722375Y-4775630D02*
X16655032Y-4842973D01*
X16655032Y-4842973D02*
X16621360Y-4943988D01*
X16621360Y-4943988D02*
X16621360Y-5011332D01*
X16621360Y-5011332D02*
X16655032Y-5112347D01*
X16655032Y-5112347D02*
X16756047Y-5280706D01*
X16756047Y-5280706D02*
X16924406Y-5449065D01*
X16924406Y-5449065D02*
X17092764Y-5550080D01*
X17092764Y-5550080D02*
X17193780Y-5583752D01*
X17193780Y-5583752D02*
X17261123Y-5583752D01*
X17261123Y-5583752D02*
X17362138Y-5550080D01*
X17362138Y-5550080D02*
X17429482Y-5482736D01*
X17429482Y-5482736D02*
X17463154Y-5381721D01*
X17463154Y-5381721D02*
X17463154Y-5314378D01*
X17463154Y-5314378D02*
X17429482Y-5213362D01*
X17429482Y-5213362D02*
X17328467Y-5045004D01*
X17328467Y-5045004D02*
X17160108Y-4876645D01*
X17160108Y-4876645D02*
X16991749Y-4775630D01*
X16991749Y-4775630D02*
X16890734Y-4741958D01*
X16890734Y-4741958D02*
X16823390Y-4741958D01*
X16823390Y-4741958D02*
X16722375Y-4775630D01*
X17900886Y-1164462D02*
X17934558Y-1063447D01*
X17934558Y-1063447D02*
X18035573Y-962431D01*
X18035573Y-962431D02*
X18170260Y-895088D01*
X18170260Y-895088D02*
X18304947Y-895088D01*
X18304947Y-895088D02*
X18405963Y-928760D01*
X18405963Y-928760D02*
X18574321Y-1029775D01*
X18574321Y-1029775D02*
X18675337Y-1130790D01*
X18675337Y-1130790D02*
X18776352Y-1299149D01*
X18776352Y-1299149D02*
X18810024Y-1400164D01*
X18810024Y-1400164D02*
X18810024Y-1534851D01*
X18810024Y-1534851D02*
X18742680Y-1669538D01*
X18742680Y-1669538D02*
X18675337Y-1736882D01*
X18675337Y-1736882D02*
X18540650Y-1804225D01*
X18540650Y-1804225D02*
X18473306Y-1804225D01*
X18473306Y-1804225D02*
X18237604Y-1568523D01*
X18237604Y-1568523D02*
X18372291Y-1433836D01*
X18237604Y-2174614D02*
X17530497Y-1467508D01*
X17530497Y-1467508D02*
X17833543Y-2578675D01*
X17833543Y-2578675D02*
X17126436Y-1871569D01*
X17496825Y-2915393D02*
X16789719Y-2208286D01*
X16789719Y-2208286D02*
X16621360Y-2376645D01*
X16621360Y-2376645D02*
X16554016Y-2511332D01*
X16554016Y-2511332D02*
X16554016Y-2646019D01*
X16554016Y-2646019D02*
X16587688Y-2747034D01*
X16587688Y-2747034D02*
X16688703Y-2915393D01*
X16688703Y-2915393D02*
X16789719Y-3016408D01*
X16789719Y-3016408D02*
X16958077Y-3117423D01*
X16958077Y-3117423D02*
X17059093Y-3151095D01*
X17059093Y-3151095D02*
X17193780Y-3151095D01*
X17193780Y-3151095D02*
X17328467Y-3083752D01*
X17328467Y-3083752D02*
X17496825Y-2915393D01*
X6142937Y-21255156D02*
X6850043Y-20548049D01*
X6378639Y-20076645D02*
X6243952Y-19941958D01*
X6243952Y-19941958D02*
X6142937Y-19908286D01*
X6142937Y-19908286D02*
X6008250Y-19908286D01*
X6008250Y-19908286D02*
X5839891Y-20009301D01*
X5839891Y-20009301D02*
X5604189Y-20245004D01*
X5604189Y-20245004D02*
X5503174Y-20413362D01*
X5503174Y-20413362D02*
X5503174Y-20548049D01*
X5503174Y-20548049D02*
X5536845Y-20649065D01*
X5536845Y-20649065D02*
X5671532Y-20783752D01*
X5671532Y-20783752D02*
X5772548Y-20817423D01*
X5772548Y-20817423D02*
X5907235Y-20817423D01*
X5907235Y-20817423D02*
X6075593Y-20716408D01*
X6075593Y-20716408D02*
X6311296Y-20480706D01*
X6311296Y-20480706D02*
X6412311Y-20312347D01*
X6412311Y-20312347D02*
X6412311Y-20177660D01*
X6412311Y-20177660D02*
X6378639Y-20076645D01*
X5839891Y-19537897D02*
X5402158Y-19100164D01*
X5402158Y-19100164D02*
X5368487Y-19605240D01*
X5368487Y-19605240D02*
X5267471Y-19504225D01*
X5267471Y-19504225D02*
X5166456Y-19470553D01*
X5166456Y-19470553D02*
X5099113Y-19470553D01*
X5099113Y-19470553D02*
X4998097Y-19504225D01*
X4998097Y-19504225D02*
X4829739Y-19672584D01*
X4829739Y-19672584D02*
X4796067Y-19773599D01*
X4796067Y-19773599D02*
X4796067Y-19840943D01*
X4796067Y-19840943D02*
X4829739Y-19941958D01*
X4829739Y-19941958D02*
X5031769Y-20143989D01*
X5031769Y-20143989D02*
X5132784Y-20177660D01*
X5132784Y-20177660D02*
X5200128Y-20177660D01*
X4358334Y-19470553D02*
X4223647Y-19335866D01*
X4223647Y-19335866D02*
X4189975Y-19234851D01*
X4189975Y-19234851D02*
X4189975Y-19167508D01*
X4189975Y-19167508D02*
X4223647Y-18999149D01*
X4223647Y-18999149D02*
X4324662Y-18830790D01*
X4324662Y-18830790D02*
X4594036Y-18561416D01*
X4594036Y-18561416D02*
X4695052Y-18527744D01*
X4695052Y-18527744D02*
X4762395Y-18527744D01*
X4762395Y-18527744D02*
X4863410Y-18561416D01*
X4863410Y-18561416D02*
X4998097Y-18696103D01*
X4998097Y-18696103D02*
X5031769Y-18797118D01*
X5031769Y-18797118D02*
X5031769Y-18864462D01*
X5031769Y-18864462D02*
X4998097Y-18965477D01*
X4998097Y-18965477D02*
X4829739Y-19133836D01*
X4829739Y-19133836D02*
X4728723Y-19167508D01*
X4728723Y-19167508D02*
X4661380Y-19167508D01*
X4661380Y-19167508D02*
X4560365Y-19133836D01*
X4560365Y-19133836D02*
X4425678Y-18999149D01*
X4425678Y-18999149D02*
X4392006Y-18898134D01*
X4392006Y-18898134D02*
X4392006Y-18830790D01*
X4392006Y-18830790D02*
X4425678Y-18729775D01*
X6142937Y-18755156D02*
X6850043Y-18048049D01*
X6378639Y-17576645D02*
X6243952Y-17441958D01*
X6243952Y-17441958D02*
X6142937Y-17408286D01*
X6142937Y-17408286D02*
X6008250Y-17408286D01*
X6008250Y-17408286D02*
X5839891Y-17509301D01*
X5839891Y-17509301D02*
X5604189Y-17745004D01*
X5604189Y-17745004D02*
X5503174Y-17913362D01*
X5503174Y-17913362D02*
X5503174Y-18048049D01*
X5503174Y-18048049D02*
X5536845Y-18149065D01*
X5536845Y-18149065D02*
X5671532Y-18283752D01*
X5671532Y-18283752D02*
X5772548Y-18317423D01*
X5772548Y-18317423D02*
X5907235Y-18317423D01*
X5907235Y-18317423D02*
X6075593Y-18216408D01*
X6075593Y-18216408D02*
X6311296Y-17980706D01*
X6311296Y-17980706D02*
X6412311Y-17812347D01*
X6412311Y-17812347D02*
X6412311Y-17677660D01*
X6412311Y-17677660D02*
X6378639Y-17576645D01*
X5839891Y-17037897D02*
X5402158Y-16600164D01*
X5402158Y-16600164D02*
X5368487Y-17105240D01*
X5368487Y-17105240D02*
X5267471Y-17004225D01*
X5267471Y-17004225D02*
X5166456Y-16970553D01*
X5166456Y-16970553D02*
X5099113Y-16970553D01*
X5099113Y-16970553D02*
X4998097Y-17004225D01*
X4998097Y-17004225D02*
X4829739Y-17172584D01*
X4829739Y-17172584D02*
X4796067Y-17273599D01*
X4796067Y-17273599D02*
X4796067Y-17340943D01*
X4796067Y-17340943D02*
X4829739Y-17441958D01*
X4829739Y-17441958D02*
X5031769Y-17643989D01*
X5031769Y-17643989D02*
X5132784Y-17677660D01*
X5132784Y-17677660D02*
X5200128Y-17677660D01*
X4358334Y-16970553D02*
X4223647Y-16835866D01*
X4223647Y-16835866D02*
X4189975Y-16734851D01*
X4189975Y-16734851D02*
X4189975Y-16667508D01*
X4189975Y-16667508D02*
X4223647Y-16499149D01*
X4223647Y-16499149D02*
X4324662Y-16330790D01*
X4324662Y-16330790D02*
X4594036Y-16061416D01*
X4594036Y-16061416D02*
X4695052Y-16027744D01*
X4695052Y-16027744D02*
X4762395Y-16027744D01*
X4762395Y-16027744D02*
X4863410Y-16061416D01*
X4863410Y-16061416D02*
X4998097Y-16196103D01*
X4998097Y-16196103D02*
X5031769Y-16297118D01*
X5031769Y-16297118D02*
X5031769Y-16364462D01*
X5031769Y-16364462D02*
X4998097Y-16465477D01*
X4998097Y-16465477D02*
X4829739Y-16633836D01*
X4829739Y-16633836D02*
X4728723Y-16667508D01*
X4728723Y-16667508D02*
X4661380Y-16667508D01*
X4661380Y-16667508D02*
X4560365Y-16633836D01*
X4560365Y-16633836D02*
X4425678Y-16499149D01*
X4425678Y-16499149D02*
X4392006Y-16398134D01*
X4392006Y-16398134D02*
X4392006Y-16330790D01*
X4392006Y-16330790D02*
X4425678Y-16229775D01*
X6142937Y-16255156D02*
X6850043Y-15548049D01*
X6378639Y-15076645D02*
X6243952Y-14941958D01*
X6243952Y-14941958D02*
X6142937Y-14908286D01*
X6142937Y-14908286D02*
X6008250Y-14908286D01*
X6008250Y-14908286D02*
X5839891Y-15009301D01*
X5839891Y-15009301D02*
X5604189Y-15245004D01*
X5604189Y-15245004D02*
X5503174Y-15413362D01*
X5503174Y-15413362D02*
X5503174Y-15548049D01*
X5503174Y-15548049D02*
X5536845Y-15649065D01*
X5536845Y-15649065D02*
X5671532Y-15783752D01*
X5671532Y-15783752D02*
X5772548Y-15817423D01*
X5772548Y-15817423D02*
X5907235Y-15817423D01*
X5907235Y-15817423D02*
X6075593Y-15716408D01*
X6075593Y-15716408D02*
X6311296Y-15480706D01*
X6311296Y-15480706D02*
X6412311Y-15312347D01*
X6412311Y-15312347D02*
X6412311Y-15177660D01*
X6412311Y-15177660D02*
X6378639Y-15076645D01*
X5839891Y-14537897D02*
X5402158Y-14100164D01*
X5402158Y-14100164D02*
X5368487Y-14605240D01*
X5368487Y-14605240D02*
X5267471Y-14504225D01*
X5267471Y-14504225D02*
X5166456Y-14470553D01*
X5166456Y-14470553D02*
X5099113Y-14470553D01*
X5099113Y-14470553D02*
X4998097Y-14504225D01*
X4998097Y-14504225D02*
X4829739Y-14672584D01*
X4829739Y-14672584D02*
X4796067Y-14773599D01*
X4796067Y-14773599D02*
X4796067Y-14840943D01*
X4796067Y-14840943D02*
X4829739Y-14941958D01*
X4829739Y-14941958D02*
X5031769Y-15143989D01*
X5031769Y-15143989D02*
X5132784Y-15177660D01*
X5132784Y-15177660D02*
X5200128Y-15177660D01*
X4695052Y-13999149D02*
X4796067Y-14032821D01*
X4796067Y-14032821D02*
X4863410Y-14032821D01*
X4863410Y-14032821D02*
X4964426Y-13999149D01*
X4964426Y-13999149D02*
X4998097Y-13965477D01*
X4998097Y-13965477D02*
X5031769Y-13864462D01*
X5031769Y-13864462D02*
X5031769Y-13797118D01*
X5031769Y-13797118D02*
X4998097Y-13696103D01*
X4998097Y-13696103D02*
X4863410Y-13561416D01*
X4863410Y-13561416D02*
X4762395Y-13527744D01*
X4762395Y-13527744D02*
X4695052Y-13527744D01*
X4695052Y-13527744D02*
X4594036Y-13561416D01*
X4594036Y-13561416D02*
X4560365Y-13595088D01*
X4560365Y-13595088D02*
X4526693Y-13696103D01*
X4526693Y-13696103D02*
X4526693Y-13763447D01*
X4526693Y-13763447D02*
X4560365Y-13864462D01*
X4560365Y-13864462D02*
X4695052Y-13999149D01*
X4695052Y-13999149D02*
X4728723Y-14100164D01*
X4728723Y-14100164D02*
X4728723Y-14167508D01*
X4728723Y-14167508D02*
X4695052Y-14268523D01*
X4695052Y-14268523D02*
X4560365Y-14403210D01*
X4560365Y-14403210D02*
X4459349Y-14436882D01*
X4459349Y-14436882D02*
X4392006Y-14436882D01*
X4392006Y-14436882D02*
X4290991Y-14403210D01*
X4290991Y-14403210D02*
X4156304Y-14268523D01*
X4156304Y-14268523D02*
X4122632Y-14167508D01*
X4122632Y-14167508D02*
X4122632Y-14100164D01*
X4122632Y-14100164D02*
X4156304Y-13999149D01*
X4156304Y-13999149D02*
X4290991Y-13864462D01*
X4290991Y-13864462D02*
X4392006Y-13830790D01*
X4392006Y-13830790D02*
X4459349Y-13830790D01*
X4459349Y-13830790D02*
X4560365Y-13864462D01*
X6142937Y-13655156D02*
X6850043Y-12948049D01*
X6378639Y-12476645D02*
X6243952Y-12341958D01*
X6243952Y-12341958D02*
X6142937Y-12308286D01*
X6142937Y-12308286D02*
X6008250Y-12308286D01*
X6008250Y-12308286D02*
X5839891Y-12409301D01*
X5839891Y-12409301D02*
X5604189Y-12645004D01*
X5604189Y-12645004D02*
X5503174Y-12813362D01*
X5503174Y-12813362D02*
X5503174Y-12948049D01*
X5503174Y-12948049D02*
X5536845Y-13049065D01*
X5536845Y-13049065D02*
X5671532Y-13183752D01*
X5671532Y-13183752D02*
X5772548Y-13217423D01*
X5772548Y-13217423D02*
X5907235Y-13217423D01*
X5907235Y-13217423D02*
X6075593Y-13116408D01*
X6075593Y-13116408D02*
X6311296Y-12880706D01*
X6311296Y-12880706D02*
X6412311Y-12712347D01*
X6412311Y-12712347D02*
X6412311Y-12577660D01*
X6412311Y-12577660D02*
X6378639Y-12476645D01*
X5839891Y-11937897D02*
X5402158Y-11500164D01*
X5402158Y-11500164D02*
X5368487Y-12005240D01*
X5368487Y-12005240D02*
X5267471Y-11904225D01*
X5267471Y-11904225D02*
X5166456Y-11870553D01*
X5166456Y-11870553D02*
X5099113Y-11870553D01*
X5099113Y-11870553D02*
X4998097Y-11904225D01*
X4998097Y-11904225D02*
X4829739Y-12072584D01*
X4829739Y-12072584D02*
X4796067Y-12173599D01*
X4796067Y-12173599D02*
X4796067Y-12240943D01*
X4796067Y-12240943D02*
X4829739Y-12341958D01*
X4829739Y-12341958D02*
X5031769Y-12543989D01*
X5031769Y-12543989D02*
X5132784Y-12577660D01*
X5132784Y-12577660D02*
X5200128Y-12577660D01*
X5166456Y-11264462D02*
X4695052Y-10793057D01*
X4695052Y-10793057D02*
X4290991Y-11803210D01*
X7153089Y-11626560D02*
X6614341Y-11087812D01*
X6614341Y-11626560D02*
X7153089Y-11087812D01*
X6782700Y-10380706D02*
X6344967Y-9942973D01*
X6344967Y-9942973D02*
X6311295Y-10448049D01*
X6311295Y-10448049D02*
X6210280Y-10347034D01*
X6210280Y-10347034D02*
X6109265Y-10313362D01*
X6109265Y-10313362D02*
X6041921Y-10313362D01*
X6041921Y-10313362D02*
X5940906Y-10347034D01*
X5940906Y-10347034D02*
X5772547Y-10515393D01*
X5772547Y-10515393D02*
X5738876Y-10616408D01*
X5738876Y-10616408D02*
X5738876Y-10683752D01*
X5738876Y-10683752D02*
X5772547Y-10784767D01*
X5772547Y-10784767D02*
X5974578Y-10986797D01*
X5974578Y-10986797D02*
X6075593Y-11020469D01*
X6075593Y-11020469D02*
X6142937Y-11020469D01*
X5402158Y-10279690D02*
X5334815Y-10279690D01*
X5334815Y-10279690D02*
X5334815Y-10347034D01*
X5334815Y-10347034D02*
X5402158Y-10347034D01*
X5402158Y-10347034D02*
X5402158Y-10279690D01*
X5402158Y-10279690D02*
X5334815Y-10347034D01*
X5772548Y-9370554D02*
X5334815Y-8932821D01*
X5334815Y-8932821D02*
X5301143Y-9437897D01*
X5301143Y-9437897D02*
X5200128Y-9336882D01*
X5200128Y-9336882D02*
X5099113Y-9303210D01*
X5099113Y-9303210D02*
X5031769Y-9303210D01*
X5031769Y-9303210D02*
X4930754Y-9336882D01*
X4930754Y-9336882D02*
X4762395Y-9505241D01*
X4762395Y-9505241D02*
X4728723Y-9606256D01*
X4728723Y-9606256D02*
X4728723Y-9673599D01*
X4728723Y-9673599D02*
X4762395Y-9774615D01*
X4762395Y-9774615D02*
X4964426Y-9976645D01*
X4964426Y-9976645D02*
X5065441Y-10010317D01*
X5065441Y-10010317D02*
X5132784Y-10010317D01*
X5132784Y-8730790D02*
X4189975Y-9202195D01*
X4189975Y-9202195D02*
X4661380Y-8259386D01*
X6176609Y-7241958D02*
X6277624Y-7275630D01*
X6277624Y-7275630D02*
X6378639Y-7376645D01*
X6378639Y-7376645D02*
X6445983Y-7511332D01*
X6445983Y-7511332D02*
X6445983Y-7646019D01*
X6445983Y-7646019D02*
X6412311Y-7747034D01*
X6412311Y-7747034D02*
X6311296Y-7915393D01*
X6311296Y-7915393D02*
X6210280Y-8016408D01*
X6210280Y-8016408D02*
X6041922Y-8117423D01*
X6041922Y-8117423D02*
X5940906Y-8151095D01*
X5940906Y-8151095D02*
X5806219Y-8151095D01*
X5806219Y-8151095D02*
X5671532Y-8083752D01*
X5671532Y-8083752D02*
X5604189Y-8016408D01*
X5604189Y-8016408D02*
X5536845Y-7881721D01*
X5536845Y-7881721D02*
X5536845Y-7814378D01*
X5536845Y-7814378D02*
X5772548Y-7578675D01*
X5772548Y-7578675D02*
X5907235Y-7713362D01*
X5166456Y-7578675D02*
X5873563Y-6871569D01*
X5873563Y-6871569D02*
X4762395Y-7174614D01*
X4762395Y-7174614D02*
X5469502Y-6467508D01*
X4425678Y-6837897D02*
X5132784Y-6130790D01*
X5132784Y-6130790D02*
X4964426Y-5962431D01*
X4964426Y-5962431D02*
X4829739Y-5895088D01*
X4829739Y-5895088D02*
X4695052Y-5895088D01*
X4695052Y-5895088D02*
X4594036Y-5928760D01*
X4594036Y-5928760D02*
X4425678Y-6029775D01*
X4425678Y-6029775D02*
X4324662Y-6130790D01*
X4324662Y-6130790D02*
X4223647Y-6299149D01*
X4223647Y-6299149D02*
X4189975Y-6400164D01*
X4189975Y-6400164D02*
X4189975Y-6534851D01*
X4189975Y-6534851D02*
X4257319Y-6669538D01*
X4257319Y-6669538D02*
X4425678Y-6837897D01*
X5669501Y-2881721D02*
X6376608Y-2174614D01*
X5905204Y-1703210D02*
X5770517Y-1568523D01*
X5770517Y-1568523D02*
X5669502Y-1534851D01*
X5669502Y-1534851D02*
X5534815Y-1534851D01*
X5534815Y-1534851D02*
X5366456Y-1635866D01*
X5366456Y-1635866D02*
X5130754Y-1871569D01*
X5130754Y-1871569D02*
X5029739Y-2039927D01*
X5029739Y-2039927D02*
X5029739Y-2174614D01*
X5029739Y-2174614D02*
X5063410Y-2275630D01*
X5063410Y-2275630D02*
X5198097Y-2410317D01*
X5198097Y-2410317D02*
X5299113Y-2443988D01*
X5299113Y-2443988D02*
X5433800Y-2443988D01*
X5433800Y-2443988D02*
X5602158Y-2342973D01*
X5602158Y-2342973D02*
X5837861Y-2107271D01*
X5837861Y-2107271D02*
X5938876Y-1938912D01*
X5938876Y-1938912D02*
X5938876Y-1804225D01*
X5938876Y-1804225D02*
X5905204Y-1703210D01*
X4558334Y-1770553D02*
X4423647Y-1635866D01*
X4423647Y-1635866D02*
X4389975Y-1534851D01*
X4389975Y-1534851D02*
X4389975Y-1467508D01*
X4389975Y-1467508D02*
X4423647Y-1299149D01*
X4423647Y-1299149D02*
X4524662Y-1130790D01*
X4524662Y-1130790D02*
X4794036Y-861416D01*
X4794036Y-861416D02*
X4895052Y-827744D01*
X4895052Y-827744D02*
X4962395Y-827744D01*
X4962395Y-827744D02*
X5063410Y-861416D01*
X5063410Y-861416D02*
X5198097Y-996103D01*
X5198097Y-996103D02*
X5231769Y-1097118D01*
X5231769Y-1097118D02*
X5231769Y-1164462D01*
X5231769Y-1164462D02*
X5198097Y-1265477D01*
X5198097Y-1265477D02*
X5029739Y-1433836D01*
X5029739Y-1433836D02*
X4928723Y-1467508D01*
X4928723Y-1467508D02*
X4861380Y-1467508D01*
X4861380Y-1467508D02*
X4760365Y-1433836D01*
X4760365Y-1433836D02*
X4625678Y-1299149D01*
X4625678Y-1299149D02*
X4592006Y-1198134D01*
X4592006Y-1198134D02*
X4592006Y-1130790D01*
X4592006Y-1130790D02*
X4625678Y-1029775D01*
X5469501Y-5381721D02*
X6176608Y-4674614D01*
X5705204Y-4203210D02*
X5570517Y-4068523D01*
X5570517Y-4068523D02*
X5469502Y-4034851D01*
X5469502Y-4034851D02*
X5334815Y-4034851D01*
X5334815Y-4034851D02*
X5166456Y-4135866D01*
X5166456Y-4135866D02*
X4930754Y-4371569D01*
X4930754Y-4371569D02*
X4829739Y-4539927D01*
X4829739Y-4539927D02*
X4829739Y-4674614D01*
X4829739Y-4674614D02*
X4863410Y-4775630D01*
X4863410Y-4775630D02*
X4998097Y-4910317D01*
X4998097Y-4910317D02*
X5099113Y-4943988D01*
X5099113Y-4943988D02*
X5233800Y-4943988D01*
X5233800Y-4943988D02*
X5402158Y-4842973D01*
X5402158Y-4842973D02*
X5637861Y-4607271D01*
X5637861Y-4607271D02*
X5738876Y-4438912D01*
X5738876Y-4438912D02*
X5738876Y-4304225D01*
X5738876Y-4304225D02*
X5705204Y-4203210D01*
X4695052Y-3799149D02*
X4796067Y-3832821D01*
X4796067Y-3832821D02*
X4863410Y-3832821D01*
X4863410Y-3832821D02*
X4964426Y-3799149D01*
X4964426Y-3799149D02*
X4998097Y-3765477D01*
X4998097Y-3765477D02*
X5031769Y-3664462D01*
X5031769Y-3664462D02*
X5031769Y-3597118D01*
X5031769Y-3597118D02*
X4998097Y-3496103D01*
X4998097Y-3496103D02*
X4863410Y-3361416D01*
X4863410Y-3361416D02*
X4762395Y-3327744D01*
X4762395Y-3327744D02*
X4695052Y-3327744D01*
X4695052Y-3327744D02*
X4594036Y-3361416D01*
X4594036Y-3361416D02*
X4560365Y-3395088D01*
X4560365Y-3395088D02*
X4526693Y-3496103D01*
X4526693Y-3496103D02*
X4526693Y-3563447D01*
X4526693Y-3563447D02*
X4560365Y-3664462D01*
X4560365Y-3664462D02*
X4695052Y-3799149D01*
X4695052Y-3799149D02*
X4728723Y-3900164D01*
X4728723Y-3900164D02*
X4728723Y-3967508D01*
X4728723Y-3967508D02*
X4695052Y-4068523D01*
X4695052Y-4068523D02*
X4560365Y-4203210D01*
X4560365Y-4203210D02*
X4459349Y-4236882D01*
X4459349Y-4236882D02*
X4392006Y-4236882D01*
X4392006Y-4236882D02*
X4290991Y-4203210D01*
X4290991Y-4203210D02*
X4156304Y-4068523D01*
X4156304Y-4068523D02*
X4122632Y-3967508D01*
X4122632Y-3967508D02*
X4122632Y-3900164D01*
X4122632Y-3900164D02*
X4156304Y-3799149D01*
X4156304Y-3799149D02*
X4290991Y-3664462D01*
X4290991Y-3664462D02*
X4392006Y-3630790D01*
X4392006Y-3630790D02*
X4459349Y-3630790D01*
X4459349Y-3630790D02*
X4560365Y-3664462D01*
D10*
X-1092581Y-8656666D02*
X-378296Y-8656666D01*
X-378296Y-8656666D02*
X-235439Y-8609047D01*
X-235439Y-8609047D02*
X-140200Y-8513809D01*
X-140200Y-8513809D02*
X-92581Y-8370952D01*
X-92581Y-8370952D02*
X-92581Y-8275714D01*
X-759248Y-9561428D02*
X-92581Y-9561428D01*
X-1140200Y-9323333D02*
X-425915Y-9085238D01*
X-425915Y-9085238D02*
X-425915Y-9704285D01*
%LPC*%
D12*
%TO.C,J3*%
X5700000Y-31300000D03*
X17400000Y-31300000D03*
D13*
X8050000Y-28900000D03*
X10550000Y-28900000D03*
X12550000Y-28900000D03*
X15050000Y-28900000D03*
%TD*%
D14*
%TO.C,J1*%
X21150000Y-31790000D03*
D15*
X21150000Y-29250000D03*
%TD*%
D16*
%TO.C,P1*%
X20375000Y-17780000D03*
D17*
X16195000Y-17780000D03*
D16*
X20375000Y-26420000D03*
D17*
X16195000Y-26420000D03*
D18*
X16695000Y-19210000D03*
X16695000Y-24990000D03*
%TD*%
D19*
%TO.C,J4*%
X2050000Y-19160000D03*
X2050000Y-16630000D03*
X2050000Y-14070000D03*
X2050000Y-11530000D03*
X2050000Y-8990000D03*
X2050000Y-6450000D03*
X2050000Y-3910000D03*
X2050000Y-1380000D03*
%TD*%
%TO.C,J2*%
X21000000Y-12080000D03*
X21000000Y-9540000D03*
X21000000Y-7000000D03*
X21000000Y-4460000D03*
X21000000Y-1920000D03*
%TD*%
%LPD*%
M02*
