M48
; DRILL file {KiCad 8.0.6} date 2024-11-28T00:53:07-0500
; FORMAT={-:-/ absolute / inch / decimal}
; #@! TF.CreationDate,2024-11-28T00:53:07-05:00
; #@! TF.GenerationSoftware,Kicad,Pcbnew,8.0.6
; #@! TF.FileFunction,Plated,1,2,PTH
FMAT,2
INCH
; #@! TA.AperFunction,Plated,PTH,ViaDrill
T1C0.0118
; #@! TA.AperFunction,Plated,PTH,ComponentDrill
T2C0.0236
; #@! TA.AperFunction,Plated,PTH,ComponentDrill
T3C0.0394
; #@! TA.AperFunction,Plated,PTH,ComponentDrill
T4C0.0433
; #@! TA.AperFunction,Plated,PTH,ComponentDrill
T5C0.0472
%
G90
G05
T1
X0.0551Y-0.9134
X0.1004Y-0.9114
X0.1142Y-0.5394
X0.1535Y-0.5118
X0.1654Y-0.7087
X0.1929Y-0.1299
X0.1929Y-0.4606
X0.2244Y-0.8425
X0.2861Y-0.6522
X0.2913Y-0.8465
X0.315Y-0.8228
X0.3189Y-1.1299
X0.3425Y-0.6654
X0.3661Y-0.6417
X0.4134Y-0.4606
X0.4724Y-0.7756
X0.4843Y-0.1299
X0.5Y-0.437
X0.5394Y-0.1969
X0.5394Y-0.252
T3
X0.5039Y-1.126
X0.6039Y-1.126
T5
X0.2008Y-1.216
X0.2992Y-1.216
X0.378Y-1.216
X0.4764Y-1.216
T2
G00X0.3789Y-0.7
M15
G01X0.4222Y-0.7
M16
G05
G00X0.3789Y-1.0402
M15
G01X0.4222Y-1.0402
M16
G05
G00X0.5502Y-0.7
M15
G01X0.5817Y-0.7
M16
G05
G00X0.5502Y-1.0402
M15
G01X0.5817Y-1.0402
M16
G05
T4
G00X0.1083Y-1.3332
M15
G01X0.1083Y-1.2879
M16
G05
G00X0.5689Y-1.3332
M15
G01X0.5689Y-1.2879
M16
G05
M30
